<svg width="160" height="80" fill="none" xmlns="http://www.w3.org/2000/svg"><path d="M81.37 22.33l-1.28-.47c-.15-.05-.32.02-.37.17-.14.42-.34.8-.66 1.1-1.71 1.62-2.51 3.58-2.64 5.81-.11 1.97-.57 2.87-2.03 4.25-1.66 1.57-2.19 2.65-2.6 4.89-.12.66-.27 1.3-.51 1.87-.92-2.15-2.04-4.09-3.11-5.71-.09-.13-.26-.17-.39-.08l-.16.1c-.12.08-.17.23-.11.36 1.29 2.94 2.01 5.32 2.23 8.36.01.1.07.19.16.24l.39.19c.09.04.2.04.29-.02 2.52-1.71 4.83-2.63 7.94-3.45.14-.04.23-.17.21-.31l-.02-.19a.29.29 0 00-.31-.26c-1.9.17-4.09.49-6.3 1.09.32-.64.5-1.32.65-1.97.68-2.9 1.54-3.24 3.52-5.16 1.05-1.01 1.51-2.68 1.68-4.02.63-4.82 2.28-3.48 3.59-6.4a.307.307 0 00-.17-.39zM73.95 7.24c.08.13.26.18.39.1 1.63-.97 3.44-2.2 5.17-3.69-.03 6.81-.22 10.69-.4 14.39-.01.16.12.3.29.3h1.28c.17 0 .3-.14.29-.3-.2-3.7-.41-7.58-.43-14.39 1.73 1.49 3.54 2.72 5.16 3.69.13.08.31.04.39-.1l.1-.16a.28.28 0 00-.06-.37c-2.44-2.09-4.12-3.92-5.65-6.56a.295.295 0 00-.25-.15h-.43c-.1 0-.2.06-.25.14-1.53 2.64-3.21 4.47-5.65 6.56a.29.29 0 00-.06.37l.11.17zm14.61 1.47c1.78.67 3.87 1.32 6.12 1.74-5.35 4.23-8.51 6.5-11.51 8.67a.29.29 0 00-.06.41l.8 1c.1.13.29.15.42.04 2.76-2.46 5.67-5.04 10.98-9.3-.09 2.27.08 4.45.33 6.32.02.15.16.26.32.25l.19-.02c.14-.02.25-.14.26-.28.11-3.21.5-5.66 1.61-8.5.04-.1.02-.2-.04-.29l-.27-.34a.277.277 0 00-.27-.1c-3.02.45-5.5.28-8.65-.33a.287.287 0 00-.33.19l-.06.18c-.06.14.01.3.16.36zm-24.94 8.82c0 .14.11.26.26.28l.19.02c.16.02.3-.09.32-.25.25-1.88.42-4.07.33-6.35 5.31 4.27 8.23 6.84 11.01 9.29.12.11.31.09.42-.04l.8-1c.1-.13.08-.32-.06-.41-3.01-2.15-6.18-4.41-11.52-8.64 2.24-.42 4.32-1.07 6.1-1.74.15-.06.22-.22.17-.36l-.06-.18a.298.298 0 00-.33-.19c-3.15.61-5.63.78-8.65.33-.1-.02-.2.02-.27.1l-.27.34a.3.3 0 00-.04.29c1.1 2.85 1.49 5.31 1.6 8.51zm28.76 16.73l-.16-.1c-.13-.08-.31-.05-.39.08-1.05 1.59-2.15 3.49-3.06 5.59-2.93-6.15-4.44-9.73-5.88-13.14a.29.29 0 00-.39-.15l-1.15.55c-.15.07-.21.25-.13.4 1.78 3.24 3.65 6.65 6.62 12.75-2.19-.58-4.35-.9-6.23-1.07a.29.29 0 00-.31.26l-.02.19c-.02.14.08.27.21.31 3.1.82 5.41 1.74 7.94 3.45.08.06.19.07.29.02l.39-.19c.09-.04.15-.14.16-.24.23-3.04.94-5.42 2.23-8.36a.28.28 0 00-.12-.35zm9.81-6.88c-2.23-2.08-3.64-4.13-5.13-6.97a.285.285 0 00-.35-.14l-.18.06c-.15.05-.23.21-.18.36a37.14 37.14 0 002.44 5.87c-6.64-1.54-10.38-2.59-13.95-3.6a.292.292 0 00-.36.21l-.28 1.25c-.04.16.07.32.23.35 3.65.63 7.48 1.29 14.12 2.78a37.149 37.149 0 00-4.74 4.2c-.11.11-.11.29.01.4l.14.14c.1.1.26.11.38.03 2.58-1.91 4.74-3.14 7.66-4.03.1-.03.17-.11.2-.21l.1-.42c0-.1-.03-.21-.11-.28zm-40.74.16c6.64-1.49 10.47-2.17 14.11-2.81a.29.29 0 00.23-.35l-.28-1.25a.285.285 0 00-.36-.21c-3.56 1.02-7.3 2.08-13.93 3.62 1.06-2.02 1.86-4.06 2.44-5.86a.283.283 0 00-.18-.36l-.18-.06a.281.281 0 00-.35.14c-1.49 2.84-2.9 4.89-5.13 6.97-.08.07-.11.18-.09.28l.1.42c.02.1.1.18.2.21 2.92.9 5.08 2.12 7.66 4.03.12.09.28.07.38-.03l.14-.14c.11-.11.11-.29.01-.4-1.33-1.36-2.93-2.85-4.77-4.2zm-8.37 39.23c-1.67.05-2.83.07-4.34.07-1.66.03-3.87 0-5.19-.05-.11 0-.21.07-.24.19l-.03.12c-.03.15.08.29.23.29.75 0 1.48.03 2.41.09-.51.44-1.04 1.41-1.39 2.7-.62 2.29-.93 3.59-1.55 5.93-.51 1.86-.99 2.57-2.55 2.66-.1.01-.19.08-.22.18l-.04.13c-.04.15.08.3.24.3 2-.05 3.67-.05 5.52-.05 1.59 0 2.95.03 4.63.05.05 0 .1-.01.14-.04.41-.27.61-.69.91-1.6l.53-1.71a.237.237 0 00-.18-.3l-.2-.04c-.1-.02-.21.03-.26.12-.91 1.69-2.04 2.56-4.17 2.56-1.74 0-2.09-.42-1.61-2.19.21-.92.66-2.62.77-2.93h.42c2.38 0 3.06.14 3.01 1.36-.01.14.1.25.24.25h.09c.11 0 .2-.07.23-.18l.88-3.36c.04-.15-.07-.3-.23-.3h-.08c-.09 0-.17.05-.21.12-.63 1.13-1.18 1.25-3.71 1.25h-.42c.08-.34.5-1.93.79-3.01.16-.66.4-1.51.5-1.74 3.49 0 4.12.39 4.1 2.14 0 .13.1.24.24.24h.11c.1 0 .2-.07.23-.17.11-.36.36-1.17.4-1.34.18-.59.32-1.19.25-1.57-.02-.09-.13-.17-.25-.17zm-37.62.66h-.15c-.09 0-.17.05-.21.13-.97 1.93-1.61 2.06-5.64 2.06.13-.5.9-3.49 1.32-5.05.26-1 .63-2.25.9-2.67 4.87.03 5.16.97 5.06 3.58-.01.13.1.25.24.25h.21c.1 0 .2-.07.23-.17l.61-2.02c.28-.89.4-1.84.23-2.36a.25.25 0 00-.24-.17c-1.59.05-2.91.05-4.73.05-2.09 0-3.99-.05-6.02-.05-2.83 0-4.6.4-5.79 1.37C.55 63.12 0 64.13 0 65.47c0 1.58 1.02 2.87 1.94 3.59.09.07.21.07.29 0l.05-.04c.09-.07.12-.19.07-.29a5.3 5.3 0 01-.5-2.24c0-1.03.24-2.25 1.22-3.2 1.22-1.19 3.01-1.61 5.97-1.53-.53.45-1.06 1.43-1.43 2.77-.82 3.17-1.74 6.95-2.64 10.3-.8 2.99-1.27 3.69-3.45 3.9-.1.01-.19.08-.21.18l-.04.16c-.04.15.08.3.24.29 1.75-.07 2.27-.09 4.12-.09 1.51 0 2.52.02 4.43.1.11 0 .21-.07.25-.2l.04-.15c.04-.14-.07-.28-.21-.29-2.56-.2-2.68-1.16-2.05-3.73.34-1.35 1-3.94 1.14-4.44 3.98 0 4.63.32 4.46 2.33-.01.14.1.26.24.26h.22c.11 0 .2-.07.23-.18.22-.87 1.06-4.21 1.33-5.26a.249.249 0 00-.25-.28zm82.75 0h-.15c-.09 0-.17.05-.21.13-.97 1.93-1.61 2.06-5.64 2.06.13-.5.9-3.49 1.32-5.05.26-1 .63-2.25.9-2.67 4.87.03 5.16.97 5.06 3.58-.01.13.1.25.24.25h.21c.1 0 .2-.07.23-.17l.61-2.02c.32-1 .42-2.09.16-2.54-1.66.05-3.01.05-4.89.05-2.09 0-3.99-.05-6.02-.05-2.83 0-4.6.4-5.79 1.37-.92.74-1.48 1.74-1.48 3.09 0 1.58 1.02 2.87 1.94 3.59.09.07.21.07.29 0l.05-.04c.09-.07.12-.19.07-.29a5.3 5.3 0 01-.5-2.24c0-1.03.24-2.25 1.22-3.2 1.22-1.19 3.01-1.61 5.97-1.53-.53.45-1.06 1.43-1.43 2.77-.82 3.17-1.74 6.95-2.64 10.3-.8 2.99-1.27 3.69-3.45 3.9-.1.01-.19.08-.21.18l-.04.16c-.04.15.08.3.24.29 1.75-.07 2.27-.09 4.12-.09 1.51 0 2.52.02 4.43.1.11 0 .21-.07.24-.18l.04-.17c.04-.14-.07-.28-.21-.29-2.56-.2-2.68-1.16-2.05-3.73.34-1.35 1-3.94 1.14-4.44 3.98 0 4.63.32 4.46 2.33-.01.14.1.26.24.26h.22c.11 0 .2-.07.23-.18.22-.87 1.06-4.21 1.33-5.26.02-.13-.1-.27-.25-.27zm47.13 11.31c-.87-.2-1.09-.74-1.21-2.46-.14-2.77-.4-8.19-.46-9.45-.01-.14-.14-.25-.28-.22l-.7.12c-.06.01-.11.04-.15.09-.57.74-5.32 6.96-7.63 9.91-1.15 1.41-1.88 1.88-2.83 2.04-.09.02-.17.08-.19.17l-.04.15c-.04.15.08.3.24.3.81-.02 1.43-.04 2.3-.04.93 0 1.57.02 2.4.05.11 0 .21-.07.24-.18l.04-.15c.04-.14-.06-.28-.21-.3-1.2-.12-1.65-.58-.54-2.22.45-.71 1.03-1.51 1.22-1.72h3.86c0 .21.03 1.24.03 2.06 0 1.34-.53 1.76-1.86 1.89-.1.01-.19.08-.21.19l-.03.14c-.03.15.09.29.24.29.98-.04 1.83-.04 2.86-.04.92 0 1.84.02 2.82.05.11 0 .21-.07.24-.18l.05-.18c.01-.15-.07-.28-.2-.31zm-7.21-4.73l3.09-4.12.13 4.12h-3.22zM62.04 76.3c1.69 0 3.63-1.55 4.53-3.97.31-.77.5-1.65.5-2.49.02-1.88-.84-3.38-2.63-3.4-1.84-.02-3.63 1.38-4.57 3.63-.4.9-.63 1.9-.63 2.8 0 2.05 1.02 3.43 2.8 3.43zm-.05-5.72c.56-1.65 1.5-3.57 2.46-3.57.54 0 .75.52.73 1.19 0 .98-.29 2.21-.65 3.38-.52 1.73-1.5 4.14-2.61 4.11-.54 0-.77-.46-.77-1.23.03-1 .39-2.55.84-3.88zm15.37 1.41c-.08.01-.15.08-.16.17-.08.84-.38 2.65-1.95 2.61.08-.46.29-1.25.5-1.94.48-1.44 1.59-4.3 1.59-4.97 0-.5-.79-1.38-1.46-1.38-1.46-.02-3.97 3.89-5.33 6.79l-.13-.08 2.28-6.5c-.5-.17-.96-.23-1.42-.23-1.9.02-3.29 1.44-3.34 3.91 0 .14.12.24.25.21.09-.02.16-.1.17-.19.04-1.03.68-2.53 1.75-2.49-.17 1.07-.94 3.38-1.75 5.91-.52 1.59.1 2.3.46 2.4l.53.06c.11.01.21-.05.25-.15.87-2.25 3.11-5.9 4.61-7.47.25-.25.61-.61.86-.61.1.08.21.13.1.54-.58 2.05-1.19 3.49-1.82 5.26-.65 1.86-.33 2.36.79 2.38 2.29.02 3.52-1.69 3.44-4.07 0-.09-.1-.18-.22-.16zm-.9 6.31H59.81c-.11 0-.2.08-.23.18l-.14.57c-.04.15.08.29.23.29h16.64c.11 0 .2-.08.23-.18l.14-.57a.228.228 0 00-.22-.29zm-36.01-8.42c.11-.36.36-1.17.4-1.34.18-.6.32-1.19.25-1.57a.227.227 0 00-.24-.19c-1.67.05-2.83.07-4.34.07-1.66.03-3.87 0-5.19-.05-.11 0-.21.07-.24.19 0 0-.01.05-.03.12-.03.15.08.29.23.29.75 0 1.48.03 2.41.09-.51.44-1.04 1.41-1.39 2.7-.62 2.29-.93 3.59-1.56 5.93-.47 1.73-.93 2.45-2.23 2.63-1.39.07-1.95-.79-2.74-2.6-.48-1.11-.74-2.06-.98-2.99 1.64-.45 3.22-1.56 3.25-3.36.05-2.11-1.66-3.01-4.54-3.01H18c-.11 0-.21.08-.23.19 0 0-.02.1-.03.13-.04.18.08.29.23.29.75 0 1.5.03 2.43.09-.53.45-1.06 1.47-1.43 2.82-.44 1.71-1.12 4.14-1.51 5.76-.51 1.86-.95 2.59-2.58 2.71-.1.01-.19.08-.22.18l-.04.14c-.04.15.08.3.24.3 1.07-.02 1.98-.05 2.99-.05 1.15 0 2.02.02 3.19.05.11 0 .21-.07.24-.18l.04-.16c.04-.14-.06-.27-.2-.29-1.35-.19-1.42-.87-.97-2.64.16-.61.53-1.93.61-2.3.42.03 1.08.05 1.59.05.13.63.34 1.4.63 2.25.29.9.63 1.64 1.06 2.25.55.69 1.37 1.16 2.91 1.16.47 0 1.02-.13 1.45-.14 1.91-.04 3.52-.04 5.32-.04 1.59 0 2.95.03 4.63.05.05 0 .1-.01.14-.04.41-.27.61-.69.92-1.6l.53-1.71a.237.237 0 00-.18-.3l-.2-.04c-.1-.02-.21.03-.26.12-.91 1.69-2.04 2.56-4.17 2.56-1.74 0-2.09-.42-1.61-2.19.21-.92.66-2.62.77-2.93h.42c2.38 0 3.06.14 3.01 1.36-.01.14.1.25.24.25h.09c.11 0 .2-.07.23-.18l.88-3.36c.04-.15-.07-.3-.23-.3h-.08c-.09 0-.17.05-.21.12-.63 1.13-1.18 1.25-3.71 1.25h-.42c.08-.34.5-1.93.79-3.01.16-.66.4-1.51.5-1.74 3.49 0 4.12.39 4.1 2.14 0 .13.1.24.24.24h.11a.26.26 0 00.2-.17zm-19.02 3.25c-.16 0-.34-.03-.48-.03.18-.79.69-2.59.92-3.49.16-.66.45-1.72.58-2.09 1.77-.03 2.96.63 2.93 2.25.01 2.25-1.63 3.36-3.95 3.36zm96.43-3.03c.48-1.81.92-2.54 2.45-2.68.1-.01.19-.08.21-.18l.04-.14c.04-.15-.08-.3-.24-.3-1 .02-1.96.05-3.01.05-1 0-2.18-.02-3.22-.05-.11 0-.21.07-.23.18l-.03.13c-.04.15.07.3.23.3.74 0 1.47.03 2.4.09-.53.45-1.03 1.47-1.39 2.82-.61 2.24-.91 3.46-1.53 5.79-.45 1.67-.92 2.46-2.21 2.65-1.44.13-1.99-.78-2.78-2.6-.48-1.11-.74-2.06-.98-2.99 1.64-.45 3.22-1.56 3.25-3.36.05-2.11-1.66-3.01-4.54-3.01h-5.52c-.11 0-.21.08-.23.19 0 0-.02.1-.03.13-.04.18.08.29.23.29.75 0 1.5.03 2.43.09-.53.45-1.06 1.47-1.43 2.82-.44 1.71-1.12 4.14-1.51 5.76-.51 1.86-.95 2.59-2.58 2.71-.1.01-.19.08-.22.18l-.04.14c-.04.15.08.3.24.3 1.07-.02 1.98-.05 2.99-.05 1.15 0 2.02.02 3.19.05.11 0 .21-.07.24-.18l.04-.16c.04-.14-.06-.27-.2-.29-1.35-.19-1.42-.87-.97-2.64.16-.61.53-1.93.61-2.3.42.03 1.08.05 1.59.05.13.63.34 1.4.63 2.25.29.9.63 1.64 1.06 2.25.55.69 1.37 1.16 2.91 1.16.47 0 1.03-.14 1.45-.16 1.02-.05 2.01-.03 2.94-.03 1.08 0 2.08.02 3.22.05.11 0 .21-.07.24-.18l.04-.15c.04-.14-.06-.28-.21-.3-1.38-.12-1.56-.79-1.09-2.65.5-1.97 1.29-5.11 1.56-6.03zm-13.69 3.03c-.16 0-.34-.03-.48-.03.18-.79.69-2.59.92-3.49.16-.66.45-1.72.58-2.09 1.77-.03 2.96.63 2.93 2.25.01 2.25-1.62 3.36-3.95 3.36zm26.47-5.76c-1-.42-2.51-.58-3.78-.58h-4.91c-.11 0-.21.08-.23.19l-.03.13c-.03.15.08.29.23.29.75 0 1.48.03 2.41.09-.53.45-1.06 1.47-1.42 2.82-.39 1.45-.91 3.5-1.53 5.82-.48 1.86-.99 2.57-2.55 2.66-.1.01-.19.08-.22.18l-.04.14c-.04.15.07.3.23.3h5.88c1.24 0 2.75-.18 3.94-.66 2.72-1 4.94-3.3 4.97-7.03.01-2.15-1.18-3.71-2.95-4.35zm-5.28 11.23c-1.53 0-1.69-.58-1.22-2.43.63-2.4.95-3.59 1.59-6.05.18-.74.55-2.06.69-2.56 1.32 0 2.11.16 2.88.69.79.53 1.29 1.72 1.29 3.09-.03 4.28-2.19 7.26-5.23 7.26zm34.39-11.8c-.66.02-1.3.04-2.01.04-.86 0-1.42-.02-2.24-.05-.11 0-.21.07-.24.18l-.04.15c-.04.14.06.28.21.3 1 .12 1.19.68.41 1.77-.98 1.35-2.25 2.99-3.01 3.94-.29-1.03-.85-2.99-1.11-4.2-.13-.66.04-1.39 1.29-1.52.1-.01.18-.08.2-.18l.04-.14c.04-.15-.08-.3-.24-.3-.97.02-1.82.05-2.75.05-.89 0-1.8 0-2.74-.04-.11-.01-.21.07-.24.18l-.03.13c-.04.15.07.29.22.3.55.01 1.12.04 1.8.08-.53.45-.41 1.53-.02 2.82.23.75.65 2.22.87 3.01.21.79.24 1.14.05 1.77-.08.34-.24.9-.29 1.11-.51 1.87-.95 2.45-2.6 2.58-.1.01-.19.08-.21.18l-.04.14c-.04.15.08.3.23.3 1.06-.02 2.38-.05 3.39-.05 1.1 0 1.99.02 3.11.05.11 0 .21-.07.24-.18l.04-.15c.04-.14-.06-.28-.21-.3-1.49-.13-1.7-.73-1.22-2.54.08-.32.24-.9.37-1.4.13-.53.32-.9.61-1.29.98-1.27 2.14-2.72 3.28-4.04 1.35-1.57 1.99-1.99 2.88-2.08.1-.01.18-.08.2-.18l.04-.14c.04-.15-.08-.3-.24-.3z" fill="#fff"/></svg>