<svg width="145" height="28" fill="none" xmlns="http://www.w3.org/2000/svg"><path d="M15.203 14.37l-.82-.3c-.1-.04-.21.01-.24.11-.09.27-.22.51-.42.71-1.1 1.04-1.62 2.3-1.7 3.74-.07 1.27-.37 1.85-1.3 2.73-1.07 1.01-1.41 1.7-1.67 3.14-.08.43-.17.84-.33 1.2-.59-1.38-1.31-2.63-2-3.67-.06-.08-.17-.11-.25-.05l-.1.07a.18.18 0 00-.07.23c.83 1.89 1.29 3.42 1.44 5.38 0 .07.04.12.1.15l.25.12c.06.03.13.02.18-.01 1.62-1.1 3.11-1.69 5.1-2.22.09-.02.15-.11.14-.2l-.01-.12a.18.18 0 00-.2-.16c-1.22.11-2.63.32-4.06.7.2-.41.32-.85.42-1.27.44-1.86.99-2.08 2.26-3.32.67-.65.97-1.72 1.08-2.58.41-3.1 1.47-2.24 2.31-4.12.04-.11-.01-.23-.11-.26zm-4.771-9.71c.05.09.16.11.25.06 1.05-.63 2.21-1.42 3.32-2.37-.02 4.38-.14 6.88-.26 9.26-.01.11.08.19.19.19h.82c.11 0 .19-.09.19-.2-.13-2.38-.26-4.88-.28-9.25 1.11.96 2.27 1.75 3.32 2.37.09.05.2.02.25-.06l.07-.1c.05-.08.03-.18-.04-.24-1.57-1.34-2.65-2.52-3.63-4.22a.178.178 0 00-.16-.1h-.28a.19.19 0 00-.16.09c-.98 1.7-2.06 2.88-3.63 4.22-.07.06-.09.16-.04.24l.07.11zm9.4.94c1.14.43 2.49.85 3.94 1.12-3.44 2.72-5.47 4.18-7.41 5.57-.09.06-.1.18-.04.27l.51.64c.07.08.19.09.27.02 1.78-1.58 3.65-3.24 7.06-5.98-.05 1.46.05 2.86.22 4.07.01.1.1.17.2.16l.12-.01c.09-.01.16-.09.16-.18.07-2.06.32-3.64 1.04-5.47.02-.06.01-.13-.03-.18l-.17-.22a.19.19 0 00-.17-.07c-1.94.29-3.53.18-5.56-.21a.18.18 0 00-.21.12l-.04.12c-.03.09.01.2.11.23zm-16.04 5.68c0 .09.07.17.16.18l.12.01c.1.01.19-.06.2-.16.17-1.21.28-2.61.22-4.08 3.42 2.75 5.29 4.4 7.08 5.98.08.07.2.06.27-.02l.51-.64c.07-.08.05-.21-.04-.27-1.94-1.38-3.98-2.84-7.41-5.55 1.45-.28 2.79-.7 3.93-1.13.09-.04.14-.14.11-.23l-.04-.12a.18.18 0 00-.21-.12c-2.03.39-3.62.5-5.56.21a.199.199 0 00-.18.07l-.17.22c-.04.05-.05.12-.03.18.72 1.83.96 3.4 1.04 5.47zm18.501 10.75l-.1-.07c-.09-.05-.2-.03-.25.05-.67 1.02-1.38 2.25-1.97 3.6-1.89-3.95-2.86-6.26-3.78-8.45a.19.19 0 00-.25-.1l-.74.36c-.1.05-.13.16-.08.26 1.15 2.08 2.35 4.27 4.26 8.2-1.41-.38-2.8-.58-4.01-.69a.18.18 0 00-.2.16l-.01.12c-.01.09.05.18.14.2 2 .53 3.48 1.12 5.1 2.22.05.04.13.04.18.01l.25-.12c.06-.03.1-.09.1-.15.15-1.96.61-3.49 1.44-5.38.03-.07 0-.17-.08-.22zm6.309-4.42c-1.44-1.34-2.34-2.65-3.3-4.48a.191.191 0 00-.23-.09l-.12.04c-.09.03-.15.14-.12.23.38 1.16.89 2.48 1.57 3.78-4.27-.99-6.68-1.67-8.97-2.31a.18.18 0 00-.23.14l-.18.8c-.02.1.04.21.15.22 2.35.4 4.81.83 9.08 1.79-1.18.87-2.21 1.82-3.05 2.7-.07.07-.07.19 0 .26l.09.09c.06.07.17.07.24.02 1.66-1.23 3.05-2.02 4.92-2.59.06-.02.11-.07.13-.14l.06-.27c.03-.07.01-.14-.04-.19zm-26.2.11c4.27-.96 6.73-1.39 9.08-1.81.1-.02.17-.12.15-.22l-.18-.8a.187.187 0 00-.23-.14c-2.29.65-4.7 1.34-8.96 2.33.68-1.3 1.19-2.61 1.57-3.77a.18.18 0 00-.12-.23l-.12-.04c-.09-.04-.19 0-.23.08-.96 1.83-1.86 3.15-3.3 4.48a.21.21 0 00-.06.18l.06.27c.01.06.06.12.13.14 1.88.58 3.27 1.37 4.92 2.59.07.05.18.05.24-.02l.09-.09c.07-.07.07-.19 0-.26-.83-.87-1.86-1.83-3.04-2.69zm73.001-5.94c-1.08.03-1.82.05-2.79.05-1.07.02-2.49 0-3.34-.03-.07 0-.14.05-.15.12l-.02.08c-.02.1.05.18.15.18.48 0 .95.02 1.55.05-.33.28-.67.91-.9 1.74-.4 1.48-.6 2.31-1 3.82-.33 1.2-.64 1.65-1.64 1.71-.07 0-.12.05-.14.11l-.02.09c-.03.1.05.19.15.19 1.29-.03 2.36-.03 3.55-.03 1.02 0 1.89.02 2.98.03.03 0 .06-.01.09-.02.26-.17.39-.45.59-1.03l.34-1.1c.03-.09-.03-.18-.11-.19l-.13-.03a.169.169 0 00-.17.08c-.59 1.09-1.31 1.65-2.68 1.65-1.12 0-1.34-.27-1.04-1.41.14-.59.42-1.68.49-1.89h.27c1.53 0 1.97.09 1.93.88 0 .09.06.16.15.16h.06c.07 0 .13-.05.15-.11l.57-2.16c.03-.1-.05-.19-.15-.19h-.04c-.06 0-.11.03-.13.08-.41.72-.76.8-2.39.8h-.27c.05-.22.32-1.24.51-1.94.1-.42.25-.97.32-1.12 2.25 0 2.65.25 2.64 1.37 0 .08.07.15.15.15h.07c.07 0 .13-.04.15-.11l.26-.86c.11-.38.2-.76.16-1.01-.02-.06-.09-.11-.17-.11zm-24.191.42h-.1a.15.15 0 00-.14.09c-.62 1.24-1.04 1.32-3.63 1.32.09-.32.58-2.24.85-3.25.17-.65.41-1.44.58-1.72 3.13.02 3.32.62 3.25 2.31 0 .09.07.16.15.16h.14c.07 0 .13-.04.15-.11l.39-1.3c.18-.57.25-1.19.15-1.52a.15.15 0 00-.15-.11c-1.02.03-1.87.03-3.04.03-1.34 0-2.57-.03-3.87-.03-1.82 0-2.96.25-3.72.88-.59.48-.95 1.12-.95 1.99 0 1.01.66 1.85 1.25 2.31.06.04.13.05.19 0l.03-.02c.06-.04.08-.12.05-.18a3.41 3.41 0 01-.32-1.44c0-.66.15-1.44.78-2.06.78-.76 1.94-1.04 3.84-.99-.34.29-.68.92-.92 1.78-.53 2.04-1.12 4.47-1.7 6.63-.51 1.92-.82 2.37-2.22 2.51-.06.01-.12.05-.14.11l-.03.11c-.02.1.05.19.15.19 1.12-.04 1.46-.06 2.65-.06.97 0 1.62.02 2.85.06.07 0 .14-.05.16-.13l.02-.1a.156.156 0 00-.14-.19c-1.64-.13-1.73-.74-1.32-2.4.22-.87.65-2.53.73-2.85 2.56 0 2.98.2 2.87 1.5-.01.09.06.17.15.17h.14c.07 0 .13-.05.15-.11.14-.56.68-2.71.86-3.38.03-.11-.04-.2-.14-.2zm53.22 0h-.1a.15.15 0 00-.14.09c-.62 1.24-1.04 1.32-3.63 1.32.09-.32.58-2.24.85-3.25.17-.65.41-1.44.58-1.72 3.13.02 3.32.62 3.25 2.31 0 .09.07.16.15.16h.14c.07 0 .13-.04.15-.11l.39-1.3c.2-.65.27-1.34.1-1.63-1.07.03-1.94.03-3.14.03-1.34 0-2.57-.03-3.87-.03-1.82 0-2.96.25-3.72.88-.59.48-.95 1.12-.95 1.99 0 1.01.66 1.85 1.25 2.31.06.04.13.05.19 0l.03-.02c.06-.04.08-.12.05-.18a3.41 3.41 0 01-.32-1.44c0-.66.15-1.44.78-2.06.78-.76 1.94-1.04 3.84-.99-.34.29-.68.92-.92 1.78-.53 2.04-1.12 4.47-1.7 6.63-.51 1.92-.82 2.37-2.22 2.51-.06.01-.12.05-.13.11l-.04.11c-.02.1.05.19.15.19 1.12-.04 1.46-.06 2.65-.06.97 0 1.62.02 2.85.06.07 0 .14-.05.15-.12l.03-.11a.156.156 0 00-.14-.19c-1.64-.13-1.73-.74-1.32-2.4.22-.87.65-2.53.73-2.85 2.56 0 2.98.2 2.87 1.5-.01.09.06.17.15.17h.14c.07 0 .13-.05.15-.11.14-.56.68-2.71.86-3.38.04-.11-.04-.2-.14-.2zm30.32 7.28c-.56-.13-.7-.48-.78-1.59-.09-1.78-.26-5.27-.3-6.08 0-.09-.09-.16-.18-.14l-.45.08c-.04.01-.07.03-.09.06-.37.48-3.42 4.48-4.91 6.38-.74.9-1.21 1.21-1.82 1.31-.06.01-.11.05-.12.11l-.03.1c-.03.1.05.19.15.19.52-.01.92-.03 1.48-.03.6 0 1.01.01 1.54.03.07 0 .13-.05.15-.11l.03-.1a.155.155 0 00-.13-.19c-.77-.08-1.06-.37-.35-1.43.29-.46.66-.97.78-1.1h2.48c0 .14.02.8.02 1.33 0 .86-.34 1.13-1.2 1.21a.16.16 0 00-.14.12l-.02.09c-.02.1.06.19.16.18.63-.03 1.18-.03 1.84-.03.59 0 1.18.02 1.82.03.07 0 .13-.05.15-.11l.03-.12c.02-.09-.03-.17-.11-.19zm-4.64-3.05l1.99-2.65.09 2.65h-2.08zm-48.94 1.48c1.09 0 2.34-.99 2.92-2.55.2-.5.32-1.06.32-1.6.01-1.21-.54-2.18-1.69-2.19-1.18-.01-2.34.89-2.94 2.34-.26.58-.4 1.22-.4 1.8-.01 1.31.64 2.2 1.79 2.2zm-.03-3.68c.36-1.06.97-2.3 1.59-2.3.35 0 .48.34.47.77 0 .63-.19 1.42-.42 2.18-.34 1.12-.97 2.66-1.68 2.65-.35 0-.5-.3-.5-.79.02-.66.24-1.65.54-2.51zm9.89.91c-.05.01-.09.05-.1.11-.05.54-.24 1.71-1.25 1.68.05-.3.19-.81.32-1.25.31-.93 1.02-2.77 1.02-3.2 0-.32-.51-.89-.94-.89-.94-.01-2.55 2.5-3.43 4.37l-.08-.05 1.46-4.18a2.75 2.75 0 00-.91-.15c-1.22.01-2.11.93-2.15 2.52 0 .09.08.15.16.14.06-.01.11-.06.11-.12.03-.66.44-1.63 1.13-1.6-.11.69-.6 2.18-1.13 3.8-.34 1.02.07 1.48.3 1.55l.34.04c.07.01.13-.03.16-.1.56-1.45 2-3.8 2.97-4.81.16-.16.39-.39.55-.39.07.05.13.08.07.35-.38 1.32-.77 2.24-1.17 3.39-.42 1.2-.21 1.52.51 1.53 1.47.01 2.26-1.09 2.21-2.62-.01-.08-.08-.14-.15-.12zm-.59 4.05h-10.7a.16.16 0 00-.15.12l-.09.37c-.02.1.05.19.15.19h10.7c.07 0 .13-.05.15-.12l.09-.37c.02-.1-.05-.19-.15-.19zm-23.16-5.42l.26-.86c.11-.38.2-.77.16-1.01a.146.146 0 00-.16-.12c-1.08.03-1.82.05-2.79.05-1.07.02-2.49 0-3.34-.03-.07 0-.14.05-.15.12l-.02.08c-.02.1.05.18.15.18.48 0 .95.02 1.55.05-.33.28-.67.91-.9 1.74-.4 1.48-.6 2.31-1 3.82-.3 1.11-.6 1.58-1.43 1.69-.89.05-1.25-.51-1.76-1.67-.31-.71-.48-1.33-.63-1.92 1.05-.29 2.07-1 2.09-2.16.03-1.36-1.07-1.94-2.92-1.94h-3.55a.16.16 0 00-.15.12s-.01.06-.02.09c-.03.12.05.18.15.18.48 0 .96.02 1.56.05-.34.29-.68.95-.92 1.82-.28 1.1-.72 2.67-.97 3.7-.33 1.2-.61 1.67-1.66 1.74-.07 0-.12.05-.14.11l-.02.09c-.03.1.05.19.15.19.69-.02 1.27-.03 1.92-.03.74 0 1.3.02 2.05.03.07 0 .13-.05.15-.11l.03-.1a.155.155 0 00-.13-.19c-.87-.12-.91-.56-.63-1.7.1-.39.34-1.24.39-1.48.27.02.7.03 1.02.03.08.41.22.9.41 1.44.19.58.41 1.05.68 1.44.36.44.88.75 1.87.75.3 0 .66-.08.93-.09 1.23-.03 2.27-.03 3.42-.03 1.02 0 1.89.02 2.98.03.03 0 .06-.01.09-.02.26-.17.39-.45.59-1.03l.34-1.1c.03-.09-.03-.18-.11-.19l-.13-.03a.169.169 0 00-.17.08c-.59 1.09-1.31 1.65-2.68 1.65-1.12 0-1.34-.27-1.04-1.41.14-.59.42-1.68.49-1.89h.27c1.53 0 1.97.09 1.93.88 0 .09.06.16.15.16h.06c.07 0 .13-.05.15-.11l.57-2.16c.03-.1-.05-.19-.15-.19h-.05c-.06 0-.11.03-.13.08-.41.72-.76.8-2.39.8h-.27c.05-.22.32-1.24.51-1.94.1-.42.25-.97.32-1.12 2.25 0 2.65.25 2.64 1.37 0 .08.07.15.15.15h.07c.08.03.14-.01.16-.08zm-12.23 2.1c-.1 0-.22-.02-.31-.02.12-.51.44-1.67.59-2.24.1-.42.29-1.1.37-1.34 1.14-.02 1.9.41 1.89 1.44 0 1.45-1.05 2.16-2.54 2.16zm62.021-1.95c.31-1.16.59-1.63 1.57-1.72.06-.01.12-.05.14-.11l.02-.09c.03-.1-.05-.19-.15-.19-.64.02-1.26.03-1.94.03-.64 0-1.4-.02-2.07-.03-.07 0-.13.05-.15.11l-.02.08c-.03.1.05.19.15.19.48 0 .95.02 1.54.05-.34.29-.661.95-.891 1.81-.39 1.44-.589 2.22-.979 3.72-.29 1.08-.59 1.58-1.42 1.7-.92.08-1.28-.5-1.79-1.67-.31-.71-.481-1.33-.631-1.92 1.05-.29 2.071-1 2.091-2.16.03-1.36-1.07-1.94-2.92-1.94h-3.55a.16.16 0 00-.15.12s-.01.06-.02.09c-.03.12.05.18.15.18.48 0 .96.02 1.56.05-.34.29-.68.95-.92 1.82-.28 1.1-.72 2.67-.97 3.7-.33 1.2-.61 1.67-1.66 1.74-.07 0-.12.05-.14.11l-.02.09c-.03.1.05.19.15.19.69-.02 1.27-.03 1.92-.03.74 0 1.299.02 2.049.03.07 0 .131-.05.151-.11l.029-.1c.02-.09-.039-.18-.129-.19-.87-.12-.91-.56-.63-1.7.1-.39.34-1.24.39-1.48.27.02.7.03 1.02.03.08.41.22.9.41 1.44.19.58.41 1.05.68 1.44.36.44.88.75 1.869.75.301 0 .66-.09.931-.1.649-.03 1.289-.02 1.889-.02.69 0 1.34.02 2.07.03.07 0 .131-.05.151-.11l.02-.09a.156.156 0 00-.14-.19c-.89-.08-1-.51-.7-1.71.36-1.23.87-3.25 1.04-3.84zm-8.801 1.95c-.1 0-.219-.02-.309-.02.12-.51.44-1.67.59-2.24.1-.42.29-1.1.37-1.34 1.14-.02 1.9.41 1.889 1.44.011 1.45-1.05 2.16-2.54 2.16zm17.02-3.7c-.65-.27-1.61-.37-2.43-.37h-3.16a.16.16 0 00-.15.12l-.01.08c-.02.1.05.18.15.18.48 0 .95.02 1.55.05-.34.29-.68.94-.91 1.81-.25.93-.59 2.25-.98 3.74-.31 1.2-.64 1.65-1.64 1.71-.07 0-.12.05-.14.11l-.02.09c-.03.1.05.19.15.19h3.78c.8 0 1.77-.12 2.53-.42 1.75-.65 3.18-2.12 3.19-4.52 0-1.36-.77-2.37-1.91-2.77zm-3.39 7.22c-.99 0-1.09-.37-.78-1.56.41-1.55.61-2.31 1.02-3.89.12-.48.36-1.33.44-1.65.85 0 1.36.1 1.85.44.51.34.83 1.1.83 1.99-.02 2.75-1.41 4.67-3.36 4.67zm22.121-7.59c-.42.01-.84.03-1.29.03-.55 0-.92-.01-1.44-.03-.07 0-.13.05-.15.11l-.03.1c-.02.09.04.18.13.19.65.08.76.44.26 1.14-.63.87-1.44 1.92-1.94 2.53-.19-.66-.54-1.92-.71-2.7-.08-.42.02-.9.83-.98.06-.01.11-.05.13-.11l.02-.09c.03-.1-.05-.19-.15-.19-.63.02-1.17.03-1.77.03-.57 0-1.16 0-1.76-.03-.07 0-.14.04-.15.11l-.02.09c-.02.1.05.19.14.19.35.01.72.02 1.16.05-.34.29-.26.98-.01 1.82.15.48.42 1.43.56 1.94.14.51.15.73.03 1.14-.05.22-.15.58-.19.71-.33 1.2-.61 1.57-1.67 1.66-.07.01-.12.05-.14.11l-.02.09c-.03.1.05.19.15.19.68-.02 1.53-.03 2.18-.03.71 0 1.28.02 2 .03.07 0 .13-.05.15-.11l.03-.1a.156.156 0 00-.14-.19c-.96-.08-1.09-.47-.79-1.64.05-.2.15-.58.24-.9.08-.34.2-.58.39-.83.63-.82 1.38-1.75 2.11-2.6.87-1.01 1.28-1.28 1.85-1.33.06-.01.11-.05.13-.11l.02-.09c.04-.11-.04-.2-.14-.2z" fill="#fff"/></svg>