<svg width="61" height="60" fill="none" xmlns="http://www.w3.org/2000/svg"><path d="M13.23 23.73c.64-2.34 1.56-4.04 2.48-4.82-5.14-.14-8.27.6-10.38 2.66-1.7 1.65-2.11 3.77-2.11 5.56 0 1.68.47 3.03.87 3.89.08.17.03.38-.12.5l-.08.07c-.15.12-.36.11-.51-.01C1.77 30.33 0 28.08 0 25.34c0-2.34.96-4.09 2.57-5.37 2.07-1.7 5.14-2.39 10.06-2.39 3.54 0 6.84.09 10.47.09 3.15 0 5.45 0 8.22-.08.19-.01.35.12.41.29.28.9.08 2.56-.41 4.11l-1.06 3.52c-.05.17-.21.29-.39.29h-.37a.41.41 0 01-.41-.43c.19-4.54-.33-6.19-8.79-6.23-.46.73-1.1 2.89-1.56 4.64-.73 2.71-2.07 7.9-2.3 8.77 7.01 0 8.13-.22 9.81-3.58.07-.14.21-.23.37-.23h.27c.27 0 .47.25.4.51-.47 1.82-1.93 7.64-2.31 9.14-.05.18-.21.31-.4.31h-.38c-.24 0-.43-.21-.41-.45.29-3.5-.83-4.05-7.76-4.05-.23.87-1.38 5.37-1.97 7.71-1.11 4.48-.89 6.13 3.56 6.49.25.02.43.26.37.51l-.06.26c-.06.23-.23.36-.43.35-3.32-.13-5.08-.17-7.7-.17-3.21 0-4.13.04-7.16.16a.417.417 0 01-.42-.51l.07-.28c.04-.17.19-.29.36-.31 3.79-.36 4.61-1.58 6-6.77 1.54-5.83 3.15-12.39 4.58-17.91z" fill="#fff"/><path d="M41.37 6.15c.64-2.34 1.56-4.04 2.48-4.82-5.14-.14-8.26.6-10.38 2.67-1.7 1.65-2.11 3.77-2.11 5.56 0 1.68.47 3.03.87 3.89.08.17.03.38-.12.5l-.09.05c-.15.12-.36.11-.51-.01-1.59-1.24-3.37-3.49-3.37-6.23 0-2.34.96-4.09 2.57-5.37C32.78.69 35.86 0 40.77 0c3.54 0 6.84.09 10.47.09 3.26 0 5.6 0 8.5-.09.46.78.28 2.66-.28 4.41L58.4 7.93c-.05.17-.21.29-.39.29h-.37a.41.41 0 01-.41-.43c.19-4.54-.33-6.19-8.79-6.23-.46.73-1.1 2.89-1.56 4.64-.73 2.71-2.07 7.9-2.3 8.77 7.01 0 8.13-.22 9.81-3.58.07-.14.21-.23.37-.23h.27c.27 0 .47.25.4.51-.47 1.82-1.93 7.63-2.31 9.14-.05.18-.21.31-.4.31h-.37c-.24 0-.43-.21-.41-.45.29-3.5-.83-4.05-7.76-4.05-.23.87-1.38 5.37-1.97 7.71-1.11 4.48-.89 6.13 3.56 6.49.25.02.43.26.37.51l-.08.3a.41.41 0 01-.42.31c-3.32-.13-5.08-.17-7.7-.17-3.21 0-4.13.04-7.16.16a.417.417 0 01-.42-.51l.07-.28c.04-.17.19-.29.36-.31 3.79-.36 4.61-1.58 6-6.77 1.55-5.83 3.16-12.4 4.58-17.91zM30.42 59.48c-3.66-.05-6.08-2.82-6.03-7.61-.05-2.08.44-4.5 1.33-6.72 2.17-5.53 6.32-8.8 10.57-8.8 3.95 0 5.68 3.41 5.68 7.61 0 1.88-.4 3.95-1.09 5.78-1.97 5.69-6.46 9.74-10.46 9.74zm-.15-1.23c2.62 0 5.14-5.44 6.47-9.78.79-2.62 1.43-5.58 1.48-7.96.05-1.73-.54-3.01-1.88-3.01-2.32 0-4.74 4.4-6.18 8.5-1.09 3.16-1.88 6.67-1.88 9.04.01 2.02.6 3.21 1.99 3.21z" fill="#fff"/></svg>