<svg width="30" height="23" fill="none" xmlns="http://www.w3.org/2000/svg"><path d="M6.405 21.723c0-.432.282-.78.742-.78.442 0 .733.338.733.78 0 .441-.291.78-.733.78-.46 0-.742-.348-.742-.78zm1.972 0v-1.221h-.525v.3a.936.936 0 00-.77-.357c-.686 0-1.222.536-1.222 1.278S6.396 23 7.081 23c.348 0 .601-.141.77-.357v.291h.526v-1.211zm17.882 0c0-.432.282-.78.742-.78.442 0 .733.338.733.78 0 .441-.291.78-.733.78-.46 0-.742-.348-.742-.78zm1.973 0v-2.198h-.526v1.277a.936.936 0 00-.77-.357c-.686 0-1.221.536-1.221 1.278S26.25 23 26.935 23c.348 0 .602-.141.77-.357v.291h.527v-1.211zm-13.29-.808c.338 0 .564.216.62.592h-1.258c.056-.348.263-.592.638-.592zm.02-.47c-.715 0-1.213.517-1.213 1.278 0 .77.517 1.277 1.25 1.277.366 0 .704-.094.995-.338l-.263-.395c-.206.16-.46.254-.704.254-.338 0-.648-.16-.733-.592h1.803c.01-.066.01-.131.01-.206 0-.761-.47-1.278-1.146-1.278zm6.386 1.278c0-.432.281-.78.741-.78.442 0 .733.338.733.78 0 .441-.291.78-.733.78-.46 0-.741-.358-.741-.78zm1.972 0v-1.221h-.526v.3a.936.936 0 00-.77-.357c-.686 0-1.221.536-1.221 1.278S21.338 23 22.023 23c.348 0 .602-.141.77-.357v.291h.527v-1.211zm-4.96 0c0 .742.517 1.277 1.297 1.277.366 0 .61-.085.873-.291l-.253-.432c-.197.14-.404.216-.639.216-.423-.01-.732-.31-.732-.78 0-.47.31-.77.732-.78.226 0 .442.076.639.217l.253-.432c-.263-.207-.507-.291-.873-.291-.789.018-1.296.554-1.296 1.296zm6.82-1.278a.7.7 0 00-.64.357v-.291h-.525v2.433h.526v-1.362c0-.404.169-.63.516-.63a.79.79 0 01.329.066l.16-.498a.855.855 0 00-.367-.075zm-14.182.254c-.254-.17-.601-.254-.996-.254-.62 0-1.014.291-1.014.78 0 .394.291.638.836.714l.253.037c.291.038.423.113.423.254 0 .188-.197.29-.554.29-.366 0-.63-.112-.808-.253l-.244.413c.291.216.657.32 1.052.32.704 0 1.108-.329 1.108-.799 0-.431-.32-.648-.854-.732l-.254-.038c-.226-.028-.413-.075-.413-.234 0-.179.169-.282.46-.282.31 0 .61.113.76.207l.245-.423zm6.828-.254a.7.7 0 00-.64.357v-.3h-.525v2.432h.526v-1.362c0-.403.169-.629.516-.629a.79.79 0 01.33.066l.159-.498a1.044 1.044 0 00-.366-.066zm-4.518.057h-.864v-.742h-.535v.742h-.498v.479h.498v1.108c0 .563.216.902.845.902.225 0 .498-.076.657-.188l-.15-.451a.96.96 0 01-.47.14c-.262 0-.347-.159-.347-.403V20.99h.864v-.488zm-7.917 2.442v-1.531c0-.573-.366-.958-.958-.968a.94.94 0 00-.855.432c-.169-.272-.432-.432-.807-.432-.263 0-.517.075-.714.357v-.3H1.53v2.432h.535v-1.352c0-.423.235-.648.592-.648.347 0 .526.225.526.638v1.353h.535v-1.353c0-.422.244-.648.592-.648.357 0 .535.226.535.639v1.352l.545.029z" fill="#fff"/><path d="M18.84 16.37h-8.02V1.961h8.02V16.37z" fill="#D9692C"/><path d="M11.326 9.166a9.14 9.14 0 013.504-7.203A9.115 9.115 0 009.166 0a9.167 9.167 0 000 18.333 9.115 9.115 0 005.664-1.963 9.14 9.14 0 01-3.504-7.204z" fill="#C42E2B"/><path d="M29.659 9.166a9.167 9.167 0 01-9.166 9.167 9.114 9.114 0 01-5.663-1.963 9.155 9.155 0 003.503-7.204 9.141 9.141 0 00-3.503-7.203A9.114 9.114 0 0120.492 0a9.167 9.167 0 019.166 9.166z" fill="#D78D40"/></svg>