<svg width="44" height="14" fill="none" xmlns="http://www.w3.org/2000/svg"><path d="M18.704 13.764H15.18L17.382.236h3.526l-2.204 13.528zM12.227.246L8.865 9.542l-.4-1.999-1.178-6.088S7.143.235 5.617.235H.06L0 .472S1.701.82 3.68 2.02l3.054 11.745h3.669L16.009.236l-3.782.01zm27.692 13.518h3.229L40.329.236h-2.828c-1.312 0-1.63 1.004-1.63 1.004l-5.247 12.514h3.669l.738-2.009h4.479l.41 2.02zm-3.874-4.786L37.9 3.915l1.046 5.063h-2.9zM30.9 3.495l.503-2.9S29.855 0 28.236 0c-1.743 0-5.893.769-5.893 4.479 0 3.495 4.868 3.536 4.868 5.37 0 1.835-4.366 1.507-5.811.349l-.523 3.033s1.568.769 3.977.769c2.398 0 6.026-1.24 6.026-4.633 0-3.515-4.91-3.843-4.91-5.37 0-1.527 3.424-1.332 4.93-.502z" fill="#D7D7D7"/><path d="M8.466 7.543L7.287 1.455S7.143.235 5.617.235H.06L0 .473s2.665.553 5.227 2.623c2.45 1.978 3.239 4.448 3.239 4.448z" fill="#C99353"/></svg>