<svg width="13" height="12" fill="none" xmlns="http://www.w3.org/2000/svg"><path d="M7.165 11.262c.344 0 .602-.14.935-.435l4.28-3.98a1.05 1.05 0 00.323-.725c0-.242-.102-.51-.323-.72L8.1 1.438c-.366-.316-.602-.45-.93-.45a.896.896 0 00-.907.918v1.713H6.17C2.75 3.62.961 5.827.961 9.597c0 1.064.328 1.595.865 1.595.382 0 .682-.15.93-.628.67-1.23 1.659-1.901 3.415-1.901h.092v1.697c0 .51.386.902.902.902zm.397-1.8c-.053 0-.09-.037-.09-.096V7.502c0-.08-.055-.128-.13-.128h-.666c-2.31 0-3.776.585-4.436 1.917-.011.032-.027.048-.049.048-.021 0-.037-.016-.037-.048.054-2.616 1.455-4.41 4.522-4.41h.666a.124.124 0 00.13-.129v-1.89c0-.054.037-.091.09-.091.033 0 .06.01.086.037l3.39 3.217c.043.043.059.065.059.097s-.016.06-.06.102L7.649 9.42c-.032.032-.059.043-.085.043z" fill="#8C959E"/></svg>