<svg width="13" height="11" fill="none" xmlns="http://www.w3.org/2000/svg"><path d="M6.426 10.429c.252 0 .532-.113.822-.312 2.905-1.885 4.79-4.184 4.79-6.45 0-2.154-1.434-3.594-3.238-3.594-1.042 0-1.842.457-2.374 1.279C5.894.53 5.094.073 4.052.073 2.247.073.813 1.513.813 3.666c0 2.267 1.88 4.566 4.786 6.451.295.199.574.312.827.312zm0-1.58c-.027 0-.054-.015-.097-.042-2.422-1.65-3.996-3.513-3.996-5.151 0-1.252.79-2.073 1.853-2.073.86 0 1.407.537 1.751 1.144.129.22.263.349.494.349.226 0 .37-.13.5-.35.338-.606.875-1.143 1.735-1.143 1.063 0 1.853.821 1.853 2.073 0 1.638-1.58 3.502-3.997 5.15-.043.028-.07.044-.096.044z" fill="#8C959E"/></svg>