<svg width="15" height="15" fill="none" xmlns="http://www.w3.org/2000/svg"><path d="M10.53 0H4.47A4.472 4.472 0 000 4.47v6.06A4.472 4.472 0 004.47 15h6.06A4.472 4.472 0 0015 10.53V4.47C14.992 2.003 12.99 0 10.53 0zm2.955 10.53a2.964 2.964 0 01-2.962 2.963h-6.06A2.964 2.964 0 011.5 10.53V4.47a2.964 2.964 0 012.963-2.962h6.067a2.964 2.964 0 012.963 2.962l-.008 6.06z" fill="#D7D7D7"/><path d="M7.492 3.623A3.883 3.883 0 003.615 7.5a3.883 3.883 0 003.877 3.878 3.878 3.878 0 000-7.755zm0 6.247a2.37 2.37 0 112.37-2.37 2.36 2.36 0 01-2.37 2.37zm3.893-5.287a.93.93 0 100-1.86.93.93 0 000 1.86z" fill="#D7D7D7"/></svg>