<svg width="22" height="15" fill="none" xmlns="http://www.w3.org/2000/svg"><path d="M20.49 1.29C19.718.375 18.3 0 15.585 0H5.738C2.963 0 1.515.398.75 1.373 0 2.325 0 3.72 0 5.655v3.69C0 13.095.885 15 5.73 15h9.848c2.355 0 3.652-.33 4.5-1.14.862-.825 1.237-2.182 1.237-4.515v-3.69c0-2.04-.053-3.45-.825-4.365zm-6.802 6.72l-4.47 2.34a.672.672 0 01-.315.075.659.659 0 01-.353-.098.693.693 0 01-.33-.585V5.077c0-.24.128-.465.33-.585a.678.678 0 01.675-.022l4.47 2.325a.69.69 0 01.367.607.712.712 0 01-.374.608z" fill="#D7D7D7"/></svg>