<svg width="8" height="14" viewBox="0 0 8 14" fill="none" xmlns="http://www.w3.org/2000/svg">
<path d="M5.99121 12.9053C6.18896 13.0957 6.42334 13.1982 6.70166 13.1982C7.27295 13.1982 7.72705 12.7441 7.72705 12.1802C7.72705 11.9019 7.60986 11.6382 7.40479 11.4404L2.42432 6.5918L7.40479 1.75781C7.60986 1.55273 7.72705 1.28906 7.72705 1.01807C7.72705 0.454102 7.27295 0 6.70166 0C6.41602 0 6.18896 0.0952148 5.99121 0.285645L0.373535 5.77881C0.124512 6.02051 0.00732422 6.28418 0 6.59912C0 6.90674 0.117188 7.17041 0.373535 7.41943L5.99121 12.9053Z" fill="#8C959E"/>
</svg>
