<svg width="8" height="14" viewBox="0 0 8 14" fill="none" xmlns="http://www.w3.org/2000/svg">
<path d="M1.02539 13.2056C1.31104 13.2056 1.54541 13.103 1.73584 12.9126L7.35352 7.42676C7.60254 7.17773 7.72705 6.92139 7.72705 6.60645C7.72705 6.2915 7.60986 6.02783 7.35352 5.78613L1.73584 0.292969C1.53809 0.102539 1.30371 0 1.02539 0C0.461426 0 0 0.454102 0 1.01807C0 1.29639 0.117188 1.56006 0.322266 1.76514L5.30273 6.60645L0.322266 11.4404C0.117188 11.6455 0 11.9092 0 12.1875C0 12.7515 0.461426 13.2056 1.02539 13.2056Z" fill="#8C959E"/>
</svg>
