<svg width="160" height="80" viewBox="0 0 160 80" fill="none" xmlns="http://www.w3.org/2000/svg">
<path d="M81.37 22.3298L80.09 21.8598C79.94 21.8098 79.77 21.8798 79.72 22.0298C79.58 22.4498 79.38 22.8298 79.06 23.1298C77.35 24.7498 76.55 26.7098 76.42 28.9398C76.31 30.9098 75.85 31.8098 74.39 33.1898C72.73 34.7598 72.2 35.8398 71.79 38.0798C71.67 38.7398 71.52 39.3798 71.28 39.9498C70.36 37.7998 69.24 35.8598 68.17 34.2398C68.08 34.1098 67.91 34.0698 67.78 34.1598L67.62 34.2598C67.5 34.3398 67.45 34.4898 67.51 34.6198C68.8 37.5598 69.52 39.9398 69.74 42.9798C69.75 43.0798 69.81 43.1698 69.9 43.2198L70.29 43.4098C70.38 43.4498 70.49 43.4498 70.58 43.3898C73.1 41.6798 75.41 40.7598 78.52 39.9398C78.66 39.8998 78.75 39.7698 78.73 39.6298L78.71 39.4398C78.69 39.2798 78.56 39.1698 78.4 39.1798C76.5 39.3498 74.31 39.6698 72.1 40.2698C72.42 39.6298 72.6 38.9498 72.75 38.2998C73.43 35.3998 74.29 35.0598 76.27 33.1398C77.32 32.1298 77.78 30.4598 77.95 29.1198C78.58 24.2998 80.23 25.6398 81.54 22.7198C81.6 22.5698 81.52 22.3898 81.37 22.3298Z" fill="white"/>
<path d="M73.95 7.24C74.03 7.37 74.21 7.42 74.34 7.34C75.97 6.37 77.78 5.14 79.51 3.65C79.48 10.46 79.29 14.34 79.11 18.04C79.1 18.2 79.23 18.34 79.4 18.34H80.68C80.85 18.34 80.98 18.2 80.97 18.04C80.77 14.34 80.56 10.46 80.54 3.65C82.27 5.14 84.08 6.37 85.7 7.34C85.83 7.42 86.01 7.38 86.09 7.24L86.19 7.08C86.27 6.96 86.24 6.8 86.13 6.71C83.69 4.62 82.01 2.79 80.48 0.15C80.43 0.06 80.33 0 80.23 0H79.8C79.7 0 79.6 0.06 79.55 0.14C78.02 2.78 76.34 4.61 73.9 6.7C73.79 6.79 73.77 6.95 73.84 7.07L73.95 7.24Z" fill="white"/>
<path d="M88.56 8.7099C90.34 9.3799 92.43 10.0299 94.68 10.4499C89.33 14.6799 86.17 16.9499 83.17 19.1199C83.04 19.2199 83.01 19.3999 83.11 19.5299L83.91 20.5299C84.01 20.6599 84.2 20.6799 84.33 20.5699C87.09 18.1099 90 15.5299 95.31 11.2699C95.22 13.5399 95.39 15.7199 95.64 17.5899C95.66 17.7399 95.8 17.8499 95.96 17.8399L96.15 17.8199C96.29 17.7999 96.4 17.6799 96.41 17.5399C96.52 14.3299 96.91 11.8799 98.02 9.0399C98.06 8.9399 98.04 8.8399 97.98 8.7499L97.71 8.4099C97.65 8.3299 97.54 8.2899 97.44 8.3099C94.42 8.7599 91.94 8.5899 88.79 7.9799C88.65 7.9499 88.51 8.0299 88.46 8.1699L88.4 8.3499C88.34 8.4899 88.41 8.6499 88.56 8.7099Z" fill="white"/>
<path d="M63.62 17.5299C63.62 17.6699 63.73 17.7899 63.88 17.8099L64.07 17.8299C64.23 17.8499 64.37 17.7399 64.39 17.5799C64.64 15.6999 64.81 13.5099 64.72 11.2299C70.03 15.4999 72.95 18.0699 75.73 20.5199C75.85 20.6299 76.04 20.6099 76.15 20.4799L76.95 19.4799C77.05 19.3499 77.03 19.1599 76.89 19.0699C73.88 16.9199 70.71 14.6599 65.37 10.4299C67.61 10.0099 69.69 9.3599 71.47 8.6899C71.62 8.6299 71.69 8.4699 71.64 8.3299L71.58 8.1499C71.53 8.0099 71.39 7.9399 71.25 7.9599C68.1 8.5699 65.62 8.7399 62.6 8.2899C62.5 8.2699 62.4 8.3099 62.33 8.3899L62.06 8.7299C62 8.8099 61.98 8.9199 62.02 9.0199C63.12 11.8699 63.51 14.3299 63.62 17.5299Z" fill="white"/>
<path d="M92.38 34.26L92.22 34.16C92.09 34.08 91.91 34.11 91.83 34.24C90.78 35.83 89.68 37.73 88.77 39.83C85.84 33.68 84.33 30.1 82.89 26.69C82.83 26.54 82.65 26.47 82.5 26.54L81.35 27.09C81.2 27.16 81.14 27.34 81.22 27.49C83 30.73 84.87 34.14 87.84 40.24C85.65 39.66 83.49 39.34 81.61 39.17C81.45 39.16 81.32 39.27 81.3 39.43L81.28 39.62C81.26 39.76 81.36 39.89 81.49 39.93C84.59 40.75 86.9 41.67 89.43 43.38C89.51 43.44 89.62 43.45 89.72 43.4L90.11 43.21C90.2 43.17 90.26 43.07 90.27 42.97C90.5 39.93 91.21 37.55 92.5 34.61C92.55 34.49 92.51 34.33 92.38 34.26Z" fill="white"/>
<path d="M102.19 27.38C99.96 25.3 98.55 23.25 97.06 20.41C96.99 20.28 96.84 20.22 96.71 20.27L96.53 20.33C96.38 20.38 96.3 20.54 96.35 20.69C96.93 22.5 97.73 24.54 98.79 26.56C92.15 25.02 88.41 23.97 84.84 22.96C84.68 22.92 84.52 23.01 84.48 23.17L84.2 24.42C84.16 24.58 84.27 24.74 84.43 24.77C88.08 25.4 91.91 26.06 98.55 27.55C96.72 28.9 95.12 30.38 93.81 31.75C93.7 31.86 93.7 32.04 93.82 32.15L93.96 32.29C94.06 32.39 94.22 32.4 94.34 32.32C96.92 30.41 99.08 29.18 102 28.29C102.1 28.26 102.17 28.18 102.2 28.08L102.3 27.66C102.3 27.56 102.27 27.45 102.19 27.38Z" fill="white"/>
<path d="M61.45 27.5402C68.09 26.0502 71.92 25.3702 75.56 24.7302C75.72 24.7002 75.83 24.5402 75.79 24.3802L75.51 23.1302C75.47 22.9702 75.31 22.8702 75.15 22.9202C71.59 23.9402 67.85 25.0002 61.22 26.5402C62.28 24.5202 63.08 22.4802 63.66 20.6802C63.71 20.5302 63.63 20.3702 63.48 20.3202L63.3 20.2602C63.16 20.2102 63.02 20.2702 62.95 20.4002C61.46 23.2402 60.05 25.2902 57.82 27.3702C57.74 27.4402 57.71 27.5502 57.73 27.6502L57.83 28.0702C57.85 28.1702 57.93 28.2502 58.03 28.2802C60.95 29.1802 63.11 30.4002 65.69 32.3102C65.81 32.4002 65.97 32.3802 66.07 32.2802L66.21 32.1402C66.32 32.0302 66.32 31.8502 66.22 31.7402C64.89 30.3802 63.29 28.8902 61.45 27.5402Z" fill="white"/>
<path d="M53.08 66.77C51.41 66.82 50.25 66.84 48.74 66.84C47.08 66.87 44.87 66.84 43.55 66.79C43.44 66.79 43.34 66.86 43.31 66.98L43.28 67.1C43.25 67.25 43.36 67.39 43.51 67.39C44.26 67.39 44.99 67.42 45.92 67.48C45.41 67.92 44.88 68.89 44.53 70.18C43.91 72.47 43.6 73.77 42.98 76.11C42.47 77.97 41.99 78.68 40.43 78.77C40.33 78.78 40.24 78.85 40.21 78.95L40.17 79.08C40.13 79.23 40.25 79.38 40.41 79.38C42.41 79.33 44.08 79.33 45.93 79.33C47.52 79.33 48.88 79.36 50.56 79.38C50.61 79.38 50.66 79.37 50.7 79.34C51.11 79.07 51.31 78.65 51.61 77.74L52.14 76.03C52.18 75.9 52.1 75.76 51.96 75.73L51.76 75.69C51.66 75.67 51.55 75.72 51.5 75.81C50.59 77.5 49.46 78.37 47.33 78.37C45.59 78.37 45.24 77.95 45.72 76.18C45.93 75.26 46.38 73.56 46.49 73.25H46.91C49.29 73.25 49.97 73.39 49.92 74.61C49.91 74.75 50.02 74.86 50.16 74.86H50.25C50.36 74.86 50.45 74.79 50.48 74.68L51.36 71.32C51.4 71.17 51.29 71.02 51.13 71.02H51.05C50.96 71.02 50.88 71.07 50.84 71.14C50.21 72.27 49.66 72.39 47.13 72.39H46.71C46.79 72.05 47.21 70.46 47.5 69.38C47.66 68.72 47.9 67.87 48 67.64C51.49 67.64 52.12 68.03 52.1 69.78C52.1 69.91 52.2 70.02 52.34 70.02H52.45C52.55 70.02 52.65 69.95 52.68 69.85C52.79 69.49 53.04 68.68 53.08 68.51C53.26 67.92 53.4 67.32 53.33 66.94C53.31 66.85 53.2 66.77 53.08 66.77Z" fill="white"/>
<path d="M15.46 67.4298H15.31C15.22 67.4298 15.14 67.4798 15.1 67.5598C14.13 69.4898 13.49 69.6198 9.46 69.6198C9.59 69.1198 10.36 66.1298 10.78 64.5698C11.04 63.5698 11.41 62.3198 11.68 61.8998C16.55 61.9298 16.84 62.8698 16.74 65.4798C16.73 65.6098 16.84 65.7298 16.98 65.7298H17.19C17.29 65.7298 17.39 65.6598 17.42 65.5598L18.03 63.5398C18.31 62.6498 18.43 61.6998 18.26 61.1798C18.23 61.0798 18.13 61.0098 18.02 61.0098C16.43 61.0598 15.11 61.0598 13.29 61.0598C11.2 61.0598 9.3 61.0098 7.27 61.0098C4.44 61.0098 2.67 61.4098 1.48 62.3798C0.55 63.1198 0 64.1298 0 65.4698C0 67.0498 1.02 68.3398 1.94 69.0598C2.03 69.1298 2.15 69.1298 2.23 69.0598L2.28 69.0198C2.37 68.9498 2.4 68.8298 2.35 68.7298C2.12 68.2398 1.85 67.4598 1.85 66.4898C1.85 65.4598 2.09 64.2398 3.07 63.2898C4.29 62.0998 6.08 61.6798 9.04 61.7598C8.51 62.2098 7.98 63.1898 7.61 64.5298C6.79 67.6998 5.87 71.4798 4.97 74.8298C4.17 77.8198 3.7 78.5198 1.52 78.7298C1.42 78.7398 1.33 78.8098 1.31 78.9098L1.27 79.0698C1.23 79.2198 1.35 79.3698 1.51 79.3598C3.26 79.2898 3.78 79.2698 5.63 79.2698C7.14 79.2698 8.15 79.2898 10.06 79.3698C10.17 79.3698 10.27 79.2998 10.31 79.1698L10.35 79.0198C10.39 78.8798 10.28 78.7398 10.14 78.7298C7.58 78.5298 7.46 77.5698 8.09 74.9998C8.43 73.6498 9.09 71.0598 9.23 70.5598C13.21 70.5598 13.86 70.8798 13.69 72.8898C13.68 73.0298 13.79 73.1498 13.93 73.1498H14.15C14.26 73.1498 14.35 73.0798 14.38 72.9698C14.6 72.0998 15.44 68.7598 15.71 67.7098C15.73 67.5698 15.62 67.4298 15.46 67.4298Z" fill="white"/>
<path d="M98.21 67.43H98.06C97.97 67.43 97.89 67.48 97.85 67.56C96.88 69.49 96.24 69.62 92.21 69.62C92.34 69.12 93.11 66.13 93.53 64.57C93.79 63.57 94.16 62.32 94.43 61.9C99.3 61.93 99.59 62.87 99.49 65.48C99.48 65.61 99.59 65.73 99.73 65.73H99.94C100.04 65.73 100.14 65.66 100.17 65.56L100.78 63.54C101.1 62.54 101.2 61.45 100.94 61C99.28 61.05 97.93 61.05 96.05 61.05C93.96 61.05 92.06 61 90.03 61C87.2 61 85.43 61.4 84.24 62.37C83.32 63.11 82.76 64.11 82.76 65.46C82.76 67.04 83.78 68.33 84.7 69.05C84.79 69.12 84.91 69.12 84.99 69.05L85.04 69.01C85.13 68.94 85.16 68.82 85.11 68.72C84.88 68.23 84.61 67.45 84.61 66.48C84.61 65.45 84.85 64.23 85.83 63.28C87.05 62.09 88.84 61.67 91.8 61.75C91.27 62.2 90.74 63.18 90.37 64.52C89.55 67.69 88.63 71.47 87.73 74.82C86.93 77.81 86.46 78.51 84.28 78.72C84.18 78.73 84.09 78.8 84.07 78.9L84.03 79.06C83.99 79.21 84.11 79.36 84.27 79.35C86.02 79.28 86.54 79.26 88.39 79.26C89.9 79.26 90.91 79.28 92.82 79.36C92.93 79.36 93.03 79.29 93.06 79.18L93.1 79.01C93.14 78.87 93.03 78.73 92.89 78.72C90.33 78.52 90.21 77.56 90.84 74.99C91.18 73.64 91.84 71.05 91.98 70.55C95.96 70.55 96.61 70.87 96.44 72.88C96.43 73.02 96.54 73.14 96.68 73.14H96.9C97.01 73.14 97.1 73.07 97.13 72.96C97.35 72.09 98.19 68.75 98.46 67.7C98.48 67.57 98.36 67.43 98.21 67.43Z" fill="white"/>
<path d="M145.34 78.7399C144.47 78.5399 144.25 77.9999 144.13 76.2799C143.99 73.5099 143.73 68.0899 143.67 66.8299C143.66 66.6899 143.53 66.5799 143.39 66.6099L142.69 66.7299C142.63 66.7399 142.58 66.7699 142.54 66.8199C141.97 67.5599 137.22 73.7799 134.91 76.7299C133.76 78.1399 133.03 78.6099 132.08 78.7699C131.99 78.7899 131.91 78.8499 131.89 78.9399L131.85 79.0899C131.81 79.2399 131.93 79.3899 132.09 79.3899C132.9 79.3699 133.52 79.3499 134.39 79.3499C135.32 79.3499 135.96 79.3699 136.79 79.3999C136.9 79.3999 137 79.3299 137.03 79.2199L137.07 79.0699C137.11 78.9299 137.01 78.7899 136.86 78.7699C135.66 78.6499 135.21 78.1899 136.32 76.5499C136.77 75.8399 137.35 75.0399 137.54 74.8299H141.4C141.4 75.0399 141.43 76.0699 141.43 76.8899C141.43 78.2299 140.9 78.6499 139.57 78.7799C139.47 78.7899 139.38 78.8599 139.36 78.9699L139.33 79.1099C139.3 79.2599 139.42 79.3999 139.57 79.3999C140.55 79.3599 141.4 79.3599 142.43 79.3599C143.35 79.3599 144.27 79.3799 145.25 79.4099C145.36 79.4099 145.46 79.3399 145.49 79.2299L145.54 79.0499C145.55 78.8999 145.47 78.7699 145.34 78.7399ZM138.13 74.0099L141.22 69.8899L141.35 74.0099H138.13Z" fill="white"/>
<path d="M62.04 76.3002C63.73 76.3002 65.67 74.7502 66.57 72.3302C66.88 71.5602 67.07 70.6801 67.07 69.8401C67.09 67.9601 66.23 66.4602 64.44 66.4402C62.6 66.4202 60.81 67.8202 59.87 70.0702C59.47 70.9701 59.24 71.9702 59.24 72.8702C59.24 74.9202 60.26 76.3002 62.04 76.3002ZM61.99 70.5802C62.55 68.9302 63.49 67.0102 64.45 67.0102C64.99 67.0102 65.2 67.5301 65.18 68.2001C65.18 69.1801 64.89 70.4102 64.53 71.5802C64.01 73.3102 63.03 75.7202 61.92 75.6902C61.38 75.6902 61.15 75.2302 61.15 74.4601C61.18 73.4601 61.54 71.9102 61.99 70.5802Z" fill="white"/>
<path d="M77.36 71.99C77.28 72 77.21 72.07 77.2 72.16C77.12 73 76.82 74.81 75.25 74.77C75.33 74.31 75.54 73.52 75.75 72.83C76.23 71.39 77.34 68.53 77.34 67.86C77.34 67.36 76.55 66.48 75.88 66.48C74.42 66.46 71.91 70.37 70.55 73.27L70.42 73.19L72.7 66.69C72.2 66.52 71.74 66.46 71.28 66.46C69.38 66.48 67.99 67.9 67.94 70.37C67.94 70.51 68.06 70.61 68.19 70.58C68.28 70.56 68.35 70.48 68.36 70.39C68.4 69.36 69.04 67.86 70.11 67.9C69.94 68.97 69.17 71.28 68.36 73.81C67.84 75.4 68.46 76.11 68.82 76.21L69.35 76.27C69.46 76.28 69.56 76.22 69.6 76.12C70.47 73.87 72.71 70.22 74.21 68.65C74.46 68.4 74.82 68.04 75.07 68.04C75.17 68.12 75.28 68.17 75.17 68.58C74.59 70.63 73.98 72.07 73.35 73.84C72.7 75.7 73.02 76.2 74.14 76.22C76.43 76.24 77.66 74.53 77.58 72.15C77.58 72.06 77.48 71.97 77.36 71.99Z" fill="white"/>
<path d="M76.46 78.2998H59.81C59.7 78.2998 59.61 78.3798 59.58 78.4798L59.44 79.0498C59.4 79.1998 59.52 79.3398 59.67 79.3398H76.31C76.42 79.3398 76.51 79.2598 76.54 79.1598L76.68 78.5898C76.72 78.4398 76.61 78.2998 76.46 78.2998Z" fill="white"/>
<path d="M40.45 69.8801C40.56 69.5201 40.81 68.7101 40.85 68.5401C41.03 67.9401 41.17 67.3501 41.1 66.9701C41.08 66.8501 40.97 66.7701 40.86 66.7801C39.19 66.8301 38.03 66.8501 36.52 66.8501C34.86 66.8801 32.65 66.8501 31.33 66.8001C31.22 66.8001 31.12 66.8701 31.09 66.9901C31.09 66.9901 31.08 67.0401 31.06 67.1101C31.03 67.2601 31.14 67.4001 31.29 67.4001C32.04 67.4001 32.77 67.4301 33.7 67.4901C33.19 67.9301 32.66 68.9001 32.31 70.1901C31.69 72.4801 31.38 73.7801 30.75 76.1201C30.28 77.8501 29.82 78.5701 28.52 78.7501C27.13 78.8201 26.57 77.9601 25.78 76.1501C25.3 75.0401 25.04 74.0901 24.8 73.1601C26.44 72.7101 28.02 71.6001 28.05 69.8001C28.1 67.6901 26.39 66.7901 23.51 66.7901H18C17.89 66.7901 17.79 66.8701 17.77 66.9801C17.77 66.9801 17.75 67.0801 17.74 67.1101C17.7 67.2901 17.82 67.4001 17.97 67.4001C18.72 67.4001 19.47 67.4301 20.4 67.4901C19.87 67.9401 19.34 68.9601 18.97 70.3101C18.53 72.0201 17.85 74.4501 17.46 76.0701C16.95 77.9301 16.51 78.6601 14.88 78.7801C14.78 78.7901 14.69 78.8601 14.66 78.9601L14.62 79.1001C14.58 79.2501 14.7 79.4001 14.86 79.4001C15.93 79.3801 16.84 79.3501 17.85 79.3501C19 79.3501 19.87 79.3701 21.04 79.4001C21.15 79.4001 21.25 79.3301 21.28 79.2201L21.32 79.0601C21.36 78.9201 21.26 78.7901 21.12 78.7701C19.77 78.5801 19.7 77.9001 20.15 76.1301C20.31 75.5201 20.68 74.2001 20.76 73.8301C21.18 73.8601 21.84 73.8801 22.35 73.8801C22.48 74.5101 22.69 75.2801 22.98 76.1301C23.27 77.0301 23.61 77.7701 24.04 78.3801C24.59 79.0701 25.41 79.5401 26.95 79.5401C27.42 79.5401 27.97 79.4101 28.4 79.4001C30.31 79.3601 31.92 79.3601 33.72 79.3601C35.31 79.3601 36.67 79.3901 38.35 79.4101C38.4 79.4101 38.45 79.4001 38.49 79.3701C38.9 79.1001 39.1 78.6801 39.41 77.7701L39.94 76.0601C39.98 75.9301 39.9 75.7901 39.76 75.7601L39.56 75.7201C39.46 75.7001 39.35 75.7501 39.3 75.8401C38.39 77.5301 37.26 78.4001 35.13 78.4001C33.39 78.4001 33.04 77.9801 33.52 76.2101C33.73 75.2901 34.18 73.5901 34.29 73.2801H34.71C37.09 73.2801 37.77 73.4201 37.72 74.6401C37.71 74.7801 37.82 74.8901 37.96 74.8901H38.05C38.16 74.8901 38.25 74.8201 38.28 74.7101L39.16 71.3501C39.2 71.2001 39.09 71.0501 38.93 71.0501H38.85C38.76 71.0501 38.68 71.1001 38.64 71.1701C38.01 72.3001 37.46 72.4201 34.93 72.4201H34.51C34.59 72.0801 35.01 70.4901 35.3 69.4101C35.46 68.7501 35.7 67.9001 35.8 67.6701C39.29 67.6701 39.92 68.0601 39.9 69.8101C39.9 69.9401 40 70.0501 40.14 70.0501H40.25C40.32 70.0401 40.42 69.9801 40.45 69.8801ZM21.43 73.1301C21.27 73.1301 21.09 73.1001 20.95 73.1001C21.13 72.3101 21.64 70.5101 21.87 69.6101C22.03 68.9501 22.32 67.8901 22.45 67.5201C24.22 67.4901 25.41 68.1501 25.38 69.7701C25.39 72.0201 23.75 73.1301 21.43 73.1301Z" fill="white"/>
<path d="M117.86 70.0998C118.34 68.2898 118.78 67.5598 120.31 67.4198C120.41 67.4098 120.5 67.3398 120.52 67.2398L120.56 67.0998C120.6 66.9498 120.48 66.7998 120.32 66.7998C119.32 66.8198 118.36 66.8498 117.31 66.8498C116.31 66.8498 115.13 66.8298 114.09 66.7998C113.98 66.7998 113.88 66.8698 113.86 66.9798L113.83 67.1098C113.79 67.2598 113.9 67.4098 114.06 67.4098C114.8 67.4098 115.53 67.4398 116.46 67.4998C115.93 67.9498 115.43 68.9698 115.07 70.3198C114.46 72.5598 114.16 73.7798 113.54 76.1098C113.09 77.7798 112.62 78.5698 111.33 78.7598C109.89 78.8898 109.34 77.9798 108.55 76.1598C108.07 75.0498 107.81 74.0998 107.57 73.1698C109.21 72.7198 110.79 71.6098 110.82 69.8098C110.87 67.6998 109.16 66.7998 106.28 66.7998H100.76C100.65 66.7998 100.55 66.8798 100.53 66.9898C100.53 66.9898 100.51 67.0898 100.5 67.1198C100.46 67.2998 100.58 67.4098 100.73 67.4098C101.48 67.4098 102.23 67.4398 103.16 67.4998C102.63 67.9498 102.1 68.9698 101.73 70.3198C101.29 72.0298 100.61 74.4598 100.22 76.0798C99.71 77.9398 99.27 78.6698 97.64 78.7898C97.54 78.7998 97.45 78.8698 97.42 78.9698L97.38 79.1098C97.34 79.2598 97.46 79.4098 97.62 79.4098C98.69 79.3898 99.6 79.3598 100.61 79.3598C101.76 79.3598 102.63 79.3798 103.8 79.4098C103.91 79.4098 104.01 79.3398 104.04 79.2298L104.08 79.0698C104.12 78.9298 104.02 78.7998 103.88 78.7798C102.53 78.5898 102.46 77.9098 102.91 76.1398C103.07 75.5298 103.44 74.2098 103.52 73.8398C103.94 73.8698 104.6 73.8898 105.11 73.8898C105.24 74.5198 105.45 75.2898 105.74 76.1398C106.03 77.0398 106.37 77.7798 106.8 78.3898C107.35 79.0798 108.17 79.5498 109.71 79.5498C110.18 79.5498 110.74 79.4098 111.16 79.3898C112.18 79.3398 113.17 79.3598 114.1 79.3598C115.18 79.3598 116.18 79.3798 117.32 79.4098C117.43 79.4098 117.53 79.3398 117.56 79.2298L117.6 79.0798C117.64 78.9398 117.54 78.7998 117.39 78.7798C116.01 78.6598 115.83 77.9898 116.3 76.1298C116.8 74.1598 117.59 71.0198 117.86 70.0998ZM104.17 73.1298C104.01 73.1298 103.83 73.0998 103.69 73.0998C103.87 72.3098 104.38 70.5098 104.61 69.6098C104.77 68.9498 105.06 67.8898 105.19 67.5198C106.96 67.4898 108.15 68.1498 108.12 69.7698C108.13 72.0198 106.5 73.1298 104.17 73.1298Z" fill="white"/>
<path d="M130.64 67.37C129.64 66.95 128.13 66.79 126.86 66.79H121.95C121.84 66.79 121.74 66.87 121.72 66.98L121.69 67.11C121.66 67.26 121.77 67.4 121.92 67.4C122.67 67.4 123.4 67.43 124.33 67.49C123.8 67.94 123.27 68.96 122.91 70.31C122.52 71.76 122 73.81 121.38 76.13C120.9 77.99 120.39 78.7 118.83 78.79C118.73 78.8 118.64 78.87 118.61 78.97L118.57 79.11C118.53 79.26 118.64 79.41 118.8 79.41H124.68C125.92 79.41 127.43 79.23 128.62 78.75C131.34 77.75 133.56 75.45 133.59 71.72C133.6 69.57 132.41 68.01 130.64 67.37ZM125.36 78.6C123.83 78.6 123.67 78.02 124.14 76.17C124.77 73.77 125.09 72.58 125.73 70.12C125.91 69.38 126.28 68.06 126.42 67.56C127.74 67.56 128.53 67.72 129.3 68.25C130.09 68.78 130.59 69.97 130.59 71.34C130.56 75.62 128.4 78.6 125.36 78.6Z" fill="white"/>
<path d="M159.75 66.8C159.09 66.82 158.45 66.84 157.74 66.84C156.88 66.84 156.32 66.82 155.5 66.79C155.39 66.79 155.29 66.86 155.26 66.97L155.22 67.12C155.18 67.26 155.28 67.4 155.43 67.42C156.43 67.54 156.62 68.1 155.84 69.19C154.86 70.54 153.59 72.18 152.83 73.13C152.54 72.1 151.98 70.14 151.72 68.93C151.59 68.27 151.76 67.54 153.01 67.41C153.11 67.4 153.19 67.33 153.21 67.23L153.25 67.09C153.29 66.94 153.17 66.79 153.01 66.79C152.04 66.81 151.19 66.84 150.26 66.84C149.37 66.84 148.46 66.84 147.52 66.8C147.41 66.79 147.31 66.87 147.28 66.98L147.25 67.11C147.21 67.26 147.32 67.4 147.47 67.41C148.02 67.42 148.59 67.45 149.27 67.49C148.74 67.94 148.86 69.02 149.25 70.31C149.48 71.06 149.9 72.53 150.12 73.32C150.33 74.11 150.36 74.46 150.17 75.09C150.09 75.43 149.93 75.99 149.88 76.2C149.37 78.07 148.93 78.65 147.28 78.78C147.18 78.79 147.09 78.86 147.07 78.96L147.03 79.1C146.99 79.25 147.11 79.4 147.26 79.4C148.32 79.38 149.64 79.35 150.65 79.35C151.75 79.35 152.64 79.37 153.76 79.4C153.87 79.4 153.97 79.33 154 79.22L154.04 79.07C154.08 78.93 153.98 78.79 153.83 78.77C152.34 78.64 152.13 78.04 152.61 76.23C152.69 75.91 152.85 75.33 152.98 74.83C153.11 74.3 153.3 73.93 153.59 73.54C154.57 72.27 155.73 70.82 156.87 69.5C158.22 67.93 158.86 67.51 159.75 67.42C159.85 67.41 159.93 67.34 159.95 67.24L159.99 67.1C160.03 66.95 159.91 66.8 159.75 66.8Z" fill="white"/>
</svg>
