<svg width="61" height="60" viewBox="0 0 61 60" fill="none" xmlns="http://www.w3.org/2000/svg">
<path d="M13.23 23.7301C13.87 21.3901 14.79 19.6901 15.71 18.9101C10.57 18.7701 7.44 19.5101 5.33 21.5701C3.63 23.2201 3.22 25.3401 3.22 27.1301C3.22 28.8101 3.69 30.1601 4.09 31.0201C4.17 31.1901 4.12 31.4001 3.97 31.5201L3.89 31.5901C3.74 31.7101 3.53 31.7001 3.38 31.5801C1.77 30.3301 0 28.0801 0 25.3401C0 23.0001 0.96 21.2501 2.57 19.9701C4.64 18.2701 7.71 17.5801 12.63 17.5801C16.17 17.5801 19.47 17.6701 23.1 17.6701C26.25 17.6701 28.55 17.6701 31.32 17.5901C31.51 17.5801 31.67 17.7101 31.73 17.8801C32.01 18.7801 31.81 20.4401 31.32 21.9901L30.26 25.5101C30.21 25.6801 30.05 25.8001 29.87 25.8001H29.5C29.27 25.8001 29.08 25.6101 29.09 25.3701C29.28 20.8301 28.76 19.1801 20.3 19.1401C19.84 19.8701 19.2 22.0301 18.74 23.7801C18.01 26.4901 16.67 31.6801 16.44 32.5501C23.45 32.5501 24.57 32.3301 26.25 28.9701C26.32 28.8301 26.46 28.7401 26.62 28.7401H26.89C27.16 28.7401 27.36 28.9901 27.29 29.2501C26.82 31.0701 25.36 36.8901 24.98 38.3901C24.93 38.5701 24.77 38.7001 24.58 38.7001H24.2C23.96 38.7001 23.77 38.4901 23.79 38.2501C24.08 34.7501 22.96 34.2001 16.03 34.2001C15.8 35.0701 14.65 39.5701 14.06 41.9101C12.95 46.3901 13.17 48.0401 17.62 48.4001C17.87 48.4201 18.05 48.6601 17.99 48.9101L17.93 49.1701C17.87 49.4001 17.7 49.5301 17.5 49.5201C14.18 49.3901 12.42 49.3501 9.8 49.3501C6.59 49.3501 5.67 49.3901 2.64 49.5101C2.37 49.5201 2.16 49.2701 2.22 49.0001L2.29 48.7201C2.33 48.5501 2.48 48.4301 2.65 48.4101C6.44 48.0501 7.26 46.8301 8.65 41.6401C10.19 35.8101 11.8 29.2501 13.23 23.7301Z" fill="white"/>
<path d="M41.3701 6.15C42.0101 3.81 42.9301 2.11 43.8501 1.33C38.7101 1.19 35.5901 1.93 33.4701 4C31.7701 5.65 31.3601 7.77 31.3601 9.56C31.3601 11.24 31.8301 12.59 32.2301 13.45C32.3101 13.62 32.2601 13.83 32.1101 13.95L32.0201 14C31.8701 14.12 31.6601 14.11 31.5101 13.99C29.9201 12.75 28.1401 10.5 28.1401 7.76C28.1401 5.42 29.1001 3.67 30.7101 2.39C32.7801 0.69 35.8601 0 40.7701 0C44.3101 0 47.6101 0.09 51.2401 0.09C54.5001 0.09 56.8401 0.09 59.7401 0C60.2001 0.78 60.0201 2.66 59.4601 4.41L58.4001 7.93C58.3501 8.1 58.1901 8.22 58.0101 8.22H57.6401C57.4101 8.22 57.2201 8.03 57.2301 7.79C57.4201 3.25 56.9001 1.6 48.4401 1.56C47.9801 2.29 47.3401 4.45 46.8801 6.2C46.1501 8.91 44.8101 14.1 44.5801 14.97C51.5901 14.97 52.7101 14.75 54.3901 11.39C54.4601 11.25 54.6001 11.16 54.7601 11.16H55.0301C55.3001 11.16 55.5001 11.41 55.4301 11.67C54.9601 13.49 53.5001 19.3 53.1201 20.81C53.0701 20.99 52.9101 21.12 52.7201 21.12H52.3501C52.1101 21.12 51.9201 20.91 51.9401 20.67C52.2301 17.17 51.1101 16.62 44.1801 16.62C43.9501 17.49 42.8001 21.99 42.2101 24.33C41.1001 28.81 41.3201 30.46 45.7701 30.82C46.0201 30.84 46.2001 31.08 46.1401 31.33L46.0601 31.63C46.0101 31.82 45.8401 31.95 45.6401 31.94C42.3201 31.81 40.5601 31.77 37.9401 31.77C34.7301 31.77 33.8101 31.81 30.7801 31.93C30.5101 31.94 30.3001 31.69 30.3601 31.42L30.4301 31.14C30.4701 30.97 30.6201 30.85 30.7901 30.83C34.5801 30.47 35.4001 29.25 36.7901 24.06C38.3401 18.23 39.9501 11.66 41.3701 6.15Z" fill="white"/>
<path d="M30.4202 59.4801C26.7602 59.4301 24.3402 56.6601 24.3902 51.8701C24.3402 49.7901 24.8302 47.3701 25.7202 45.1501C27.8902 39.6201 32.0402 36.3501 36.2902 36.3501C40.2402 36.3501 41.9702 39.7601 41.9702 43.9601C41.9702 45.8401 41.5702 47.9101 40.8802 49.7401C38.9102 55.4301 34.4202 59.4801 30.4202 59.4801ZM30.2702 58.2501C32.8902 58.2501 35.4102 52.8101 36.7402 48.4701C37.5302 45.8501 38.1702 42.8901 38.2202 40.5101C38.2702 38.7801 37.6802 37.5001 36.3402 37.5001C34.0202 37.5001 31.6002 41.9001 30.1602 46.0001C29.0702 49.1601 28.2802 52.6701 28.2802 55.0401C28.2902 57.0601 28.8802 58.2501 30.2702 58.2501Z" fill="white"/>
</svg>
