<svg width="145" height="28" viewBox="0 0 145 28" fill="none" xmlns="http://www.w3.org/2000/svg">
<path d="M15.2025 14.37L14.3825 14.07C14.2825 14.03 14.1725 14.08 14.1425 14.18C14.0525 14.45 13.9225 14.69 13.7225 14.89C12.6225 15.93 12.1025 17.19 12.0225 18.63C11.9525 19.9 11.6525 20.48 10.7225 21.36C9.6525 22.37 9.3125 23.06 9.0525 24.5C8.9725 24.93 8.8825 25.34 8.7225 25.7C8.1325 24.32 7.4125 23.07 6.7225 22.03C6.6625 21.95 6.5525 21.92 6.4725 21.98L6.3725 22.05C6.2925 22.1 6.2625 22.2 6.3025 22.28C7.1325 24.17 7.5925 25.7 7.7425 27.66C7.7425 27.73 7.7825 27.78 7.8425 27.81L8.0925 27.93C8.1525 27.96 8.2225 27.95 8.2725 27.92C9.8925 26.82 11.3825 26.23 13.3725 25.7C13.4625 25.68 13.5225 25.59 13.5125 25.5L13.5025 25.38C13.4925 25.28 13.4025 25.21 13.3025 25.22C12.0825 25.33 10.6725 25.54 9.2425 25.92C9.4425 25.51 9.5625 25.07 9.6625 24.65C10.1025 22.79 10.6525 22.57 11.9225 21.33C12.5925 20.68 12.8925 19.61 13.0025 18.75C13.4125 15.65 14.4725 16.51 15.3125 14.63C15.3525 14.52 15.3025 14.4 15.2025 14.37Z" fill="white"/>
<path d="M10.4325 4.66C10.4825 4.75 10.5925 4.77 10.6825 4.72C11.7325 4.09 12.8925 3.3 14.0025 2.35C13.9825 6.73 13.8625 9.23 13.7425 11.61C13.7325 11.72 13.8225 11.8 13.9325 11.8H14.7525C14.8625 11.8 14.9425 11.71 14.9425 11.6C14.8125 9.22 14.6825 6.72 14.6625 2.35C15.7725 3.31 16.9325 4.1 17.9825 4.72C18.0725 4.77 18.1825 4.74 18.2325 4.66L18.3025 4.56C18.3525 4.48 18.3325 4.38 18.2625 4.32C16.6925 2.98 15.6125 1.8 14.6325 0.1C14.6025 0.04 14.5425 0 14.4725 0H14.1925C14.1225 0 14.0625 0.04 14.0325 0.09C13.0525 1.79 11.9725 2.97 10.4025 4.31C10.3325 4.37 10.3125 4.47 10.3625 4.55L10.4325 4.66Z" fill="white"/>
<path d="M19.8325 5.6C20.9725 6.03 22.3225 6.45 23.7725 6.72C20.3325 9.44 18.3025 10.9 16.3625 12.29C16.2725 12.35 16.2625 12.47 16.3225 12.56L16.8325 13.2C16.9025 13.28 17.0225 13.29 17.1025 13.22C18.8825 11.64 20.7525 9.98 24.1625 7.24C24.1125 8.7 24.2125 10.1 24.3825 11.31C24.3925 11.41 24.4825 11.48 24.5825 11.47L24.7025 11.46C24.7925 11.45 24.8625 11.37 24.8625 11.28C24.9325 9.22 25.1825 7.64 25.9025 5.81C25.9225 5.75 25.9125 5.68 25.8725 5.63L25.7025 5.41C25.6625 5.36 25.5925 5.33 25.5325 5.34C23.5925 5.63 22.0025 5.52 19.9725 5.13C19.8825 5.11 19.7925 5.16 19.7625 5.25L19.7225 5.37C19.6925 5.46 19.7325 5.57 19.8325 5.6Z" fill="white"/>
<path d="M3.7925 11.28C3.7925 11.37 3.8625 11.45 3.9525 11.46L4.0725 11.47C4.1725 11.48 4.2625 11.41 4.2725 11.31C4.4425 10.1 4.5525 8.7 4.4925 7.23C7.9125 9.98 9.7825 11.63 11.5725 13.21C11.6525 13.28 11.7725 13.27 11.8425 13.19L12.3525 12.55C12.4225 12.47 12.4025 12.34 12.3125 12.28C10.3725 10.9 8.3325 9.44 4.9025 6.73C6.3525 6.45 7.6925 6.03 8.8325 5.6C8.9225 5.56 8.9725 5.46 8.9425 5.37L8.9025 5.25C8.8725 5.16 8.7825 5.11 8.6925 5.13C6.6625 5.52 5.0725 5.63 3.1325 5.34C3.0625 5.33 2.9925 5.36 2.9525 5.41L2.7825 5.63C2.7425 5.68 2.7325 5.75 2.7525 5.81C3.4725 7.64 3.7125 9.21 3.7925 11.28Z" fill="white"/>
<path d="M22.2925 22.03L22.1925 21.96C22.1025 21.91 21.9925 21.93 21.9425 22.01C21.2725 23.03 20.5625 24.26 19.9725 25.61C18.0825 21.66 17.1125 19.35 16.1925 17.16C16.1525 17.06 16.0325 17.02 15.9425 17.06L15.2025 17.42C15.1025 17.47 15.0725 17.58 15.1225 17.68C16.2725 19.76 17.4725 21.95 19.3825 25.88C17.9725 25.5 16.5825 25.3 15.3725 25.19C15.2725 25.18 15.1825 25.25 15.1725 25.35L15.1625 25.47C15.1525 25.56 15.2125 25.65 15.3025 25.67C17.3025 26.2 18.7825 26.79 20.4025 27.89C20.4525 27.93 20.5325 27.93 20.5825 27.9L20.8325 27.78C20.8925 27.75 20.9325 27.69 20.9325 27.63C21.0825 25.67 21.5425 24.14 22.3725 22.25C22.4025 22.18 22.3725 22.08 22.2925 22.03Z" fill="white"/>
<path d="M28.6025 17.61C27.1625 16.27 26.2625 14.96 25.3025 13.13C25.2625 13.05 25.1625 13.01 25.0725 13.04L24.9525 13.08C24.8625 13.11 24.8025 13.22 24.8325 13.31C25.2125 14.47 25.7225 15.79 26.4025 17.09C22.1325 16.1 19.7225 15.42 17.4325 14.78C17.3325 14.75 17.2225 14.81 17.2025 14.92L17.0225 15.72C17.0025 15.82 17.0625 15.93 17.1725 15.94C19.5225 16.34 21.9825 16.77 26.2525 17.73C25.0725 18.6 24.0425 19.55 23.2025 20.43C23.1325 20.5 23.1325 20.62 23.2025 20.69L23.2925 20.78C23.3525 20.85 23.4625 20.85 23.5325 20.8C25.1925 19.57 26.5825 18.78 28.4525 18.21C28.5125 18.19 28.5625 18.14 28.5825 18.07L28.6425 17.8C28.6725 17.73 28.6525 17.66 28.6025 17.61Z" fill="white"/>
<path d="M2.4025 17.72C6.6725 16.76 9.1325 16.33 11.4825 15.91C11.5825 15.89 11.6525 15.79 11.6325 15.69L11.4525 14.89C11.4325 14.79 11.3225 14.72 11.2225 14.75C8.9325 15.4 6.5225 16.09 2.2625 17.08C2.9425 15.78 3.4525 14.47 3.8325 13.31C3.8625 13.21 3.8125 13.11 3.7125 13.08L3.5925 13.04C3.5025 13 3.4025 13.04 3.3625 13.12C2.4025 14.95 1.5025 16.27 0.0625 17.6C0.0125 17.65 -0.0075 17.72 0.0025 17.78L0.0625 18.05C0.0725 18.11 0.1225 18.17 0.1925 18.19C2.0725 18.77 3.4625 19.56 5.1125 20.78C5.1825 20.83 5.2925 20.83 5.3525 20.76L5.4425 20.67C5.5125 20.6 5.5125 20.48 5.4425 20.41C4.6125 19.54 3.5825 18.58 2.4025 17.72Z" fill="white"/>
<path d="M75.4025 11.78C74.3225 11.81 73.5825 11.83 72.6125 11.83C71.5425 11.85 70.1225 11.83 69.2725 11.8C69.2025 11.8 69.1325 11.85 69.1225 11.92L69.1025 12C69.0825 12.1 69.1525 12.18 69.2525 12.18C69.7325 12.18 70.2025 12.2 70.8025 12.23C70.4725 12.51 70.1325 13.14 69.9025 13.97C69.5025 15.45 69.3025 16.28 68.9025 17.79C68.5725 18.99 68.2625 19.44 67.2625 19.5C67.1925 19.5 67.1425 19.55 67.1225 19.61L67.1025 19.7C67.0725 19.8 67.1525 19.89 67.2525 19.89C68.5425 19.86 69.6125 19.86 70.8025 19.86C71.8225 19.86 72.6925 19.88 73.7825 19.89C73.8125 19.89 73.8425 19.88 73.8725 19.87C74.1325 19.7 74.2625 19.42 74.4625 18.84L74.8025 17.74C74.8325 17.65 74.7725 17.56 74.6925 17.55L74.5625 17.52C74.4925 17.51 74.4325 17.54 74.3925 17.6C73.8025 18.69 73.0825 19.25 71.7125 19.25C70.5925 19.25 70.3725 18.98 70.6725 17.84C70.8125 17.25 71.0925 16.16 71.1625 15.95H71.4325C72.9625 15.95 73.4025 16.04 73.3625 16.83C73.3625 16.92 73.4225 16.99 73.5125 16.99H73.5725C73.6425 16.99 73.7025 16.94 73.7225 16.88L74.2925 14.72C74.3225 14.62 74.2425 14.53 74.1425 14.53H74.1025C74.0425 14.53 73.9925 14.56 73.9725 14.61C73.5625 15.33 73.2125 15.41 71.5825 15.41H71.3125C71.3625 15.19 71.6325 14.17 71.8225 13.47C71.9225 13.05 72.0725 12.5 72.1425 12.35C74.3925 12.35 74.7925 12.6 74.7825 13.72C74.7825 13.8 74.8525 13.87 74.9325 13.87H75.0025C75.0725 13.87 75.1325 13.83 75.1525 13.76C75.2225 13.53 75.3825 13 75.4125 12.9C75.5225 12.52 75.6125 12.14 75.5725 11.89C75.5525 11.83 75.4825 11.78 75.4025 11.78Z" fill="white"/>
<path d="M51.2125 12.2H51.1125C51.0525 12.2 51.0025 12.23 50.9725 12.29C50.3525 13.53 49.9325 13.61 47.3425 13.61C47.4325 13.29 47.9225 11.37 48.1925 10.36C48.3625 9.71 48.6025 8.92 48.7725 8.64C51.9025 8.66 52.0925 9.26 52.0225 10.95C52.0225 11.04 52.0925 11.11 52.1725 11.11H52.3125C52.3825 11.11 52.4425 11.07 52.4625 11L52.8525 9.7C53.0325 9.13 53.1025 8.51 53.0025 8.18C52.9825 8.11 52.9225 8.07 52.8525 8.07C51.8325 8.1 50.9825 8.1 49.8125 8.1C48.4725 8.1 47.2425 8.07 45.9425 8.07C44.1225 8.07 42.9825 8.32 42.2225 8.95C41.6325 9.43 41.2725 10.07 41.2725 10.94C41.2725 11.95 41.9325 12.79 42.5225 13.25C42.5825 13.29 42.6525 13.3 42.7125 13.25L42.7425 13.23C42.8025 13.19 42.8225 13.11 42.7925 13.05C42.6425 12.73 42.4725 12.23 42.4725 11.61C42.4725 10.95 42.6225 10.17 43.2525 9.55C44.0325 8.79 45.1925 8.51 47.0925 8.56C46.7525 8.85 46.4125 9.48 46.1725 10.34C45.6425 12.38 45.0525 14.81 44.4725 16.97C43.9625 18.89 43.6525 19.34 42.2525 19.48C42.1925 19.49 42.1325 19.53 42.1125 19.59L42.0825 19.7C42.0625 19.8 42.1325 19.89 42.2325 19.89C43.3525 19.85 43.6925 19.83 44.8825 19.83C45.8525 19.83 46.5025 19.85 47.7325 19.89C47.8025 19.89 47.8725 19.84 47.8925 19.76L47.9125 19.66C47.9325 19.57 47.8725 19.48 47.7725 19.47C46.1325 19.34 46.0425 18.73 46.4525 17.07C46.6725 16.2 47.1025 14.54 47.1825 14.22C49.7425 14.22 50.1625 14.42 50.0525 15.72C50.0425 15.81 50.1125 15.89 50.2025 15.89H50.3425C50.4125 15.89 50.4725 15.84 50.4925 15.78C50.6325 15.22 51.1725 13.07 51.3525 12.4C51.3825 12.29 51.3125 12.2 51.2125 12.2Z" fill="white"/>
<path d="M104.432 12.2H104.332C104.272 12.2 104.222 12.23 104.192 12.29C103.572 13.53 103.152 13.61 100.562 13.61C100.652 13.29 101.142 11.37 101.412 10.36C101.582 9.71 101.822 8.92 101.992 8.64C105.122 8.66 105.312 9.26 105.242 10.95C105.242 11.04 105.312 11.11 105.392 11.11H105.532C105.602 11.11 105.662 11.07 105.682 11L106.072 9.7C106.272 9.05 106.342 8.36 106.172 8.07C105.102 8.1 104.232 8.1 103.032 8.1C101.692 8.1 100.462 8.07 99.1625 8.07C97.3425 8.07 96.2025 8.32 95.4425 8.95C94.8525 9.43 94.4925 10.07 94.4925 10.94C94.4925 11.95 95.1525 12.79 95.7425 13.25C95.8025 13.29 95.8725 13.3 95.9325 13.25L95.9625 13.23C96.0225 13.19 96.0425 13.11 96.0125 13.05C95.8625 12.73 95.6925 12.23 95.6925 11.61C95.6925 10.95 95.8425 10.17 96.4725 9.55C97.2525 8.79 98.4125 8.51 100.312 8.56C99.9725 8.85 99.6325 9.48 99.3925 10.34C98.8625 12.38 98.2725 14.81 97.6925 16.97C97.1825 18.89 96.8725 19.34 95.4725 19.48C95.4125 19.49 95.3525 19.53 95.3425 19.59L95.3025 19.7C95.2825 19.8 95.3525 19.89 95.4525 19.89C96.5725 19.85 96.9125 19.83 98.1025 19.83C99.0725 19.83 99.7225 19.85 100.952 19.89C101.022 19.89 101.092 19.84 101.102 19.77L101.132 19.66C101.152 19.57 101.092 19.48 100.992 19.47C99.3525 19.34 99.2625 18.73 99.6725 17.07C99.8925 16.2 100.322 14.54 100.402 14.22C102.962 14.22 103.382 14.42 103.272 15.72C103.262 15.81 103.332 15.89 103.422 15.89H103.562C103.632 15.89 103.692 15.84 103.712 15.78C103.852 15.22 104.392 13.07 104.572 12.4C104.612 12.29 104.532 12.2 104.432 12.2Z" fill="white"/>
<path d="M134.752 19.48C134.192 19.35 134.052 19 133.972 17.89C133.882 16.11 133.712 12.62 133.672 11.81C133.672 11.72 133.582 11.65 133.492 11.67L133.042 11.75C133.002 11.76 132.972 11.78 132.952 11.81C132.582 12.29 129.532 16.29 128.042 18.19C127.302 19.09 126.832 19.4 126.222 19.5C126.162 19.51 126.112 19.55 126.102 19.61L126.072 19.71C126.042 19.81 126.122 19.9 126.222 19.9C126.742 19.89 127.142 19.87 127.702 19.87C128.302 19.87 128.712 19.88 129.242 19.9C129.312 19.9 129.372 19.85 129.392 19.79L129.422 19.69C129.442 19.6 129.382 19.51 129.292 19.5C128.522 19.42 128.232 19.13 128.942 18.07C129.232 17.61 129.602 17.1 129.722 16.97H132.202C132.202 17.11 132.222 17.77 132.222 18.3C132.222 19.16 131.882 19.43 131.022 19.51C130.952 19.52 130.902 19.56 130.882 19.63L130.862 19.72C130.842 19.82 130.922 19.91 131.022 19.9C131.652 19.87 132.202 19.87 132.862 19.87C133.452 19.87 134.042 19.89 134.682 19.9C134.752 19.9 134.812 19.85 134.832 19.79L134.862 19.67C134.882 19.58 134.832 19.5 134.752 19.48ZM130.112 16.43L132.102 13.78L132.192 16.43H130.112Z" fill="white"/>
<path d="M81.1725 17.91C82.2625 17.91 83.5125 16.92 84.0925 15.36C84.2925 14.86 84.4125 14.3 84.4125 13.76C84.4225 12.55 83.8725 11.58 82.7225 11.57C81.5425 11.56 80.3825 12.46 79.7825 13.91C79.5225 14.49 79.3825 15.13 79.3825 15.71C79.3725 17.02 80.0225 17.91 81.1725 17.91ZM81.1425 14.23C81.5025 13.17 82.1125 11.93 82.7325 11.93C83.0825 11.93 83.2125 12.27 83.2025 12.7C83.2025 13.33 83.0125 14.12 82.7825 14.88C82.4425 16 81.8125 17.54 81.1025 17.53C80.7525 17.53 80.6025 17.23 80.6025 16.74C80.6225 16.08 80.8425 15.09 81.1425 14.23Z" fill="white"/>
<path d="M91.0325 15.14C90.9825 15.15 90.9425 15.19 90.9325 15.25C90.8825 15.79 90.6925 16.96 89.6825 16.93C89.7325 16.63 89.8725 16.12 90.0025 15.68C90.3125 14.75 91.0225 12.91 91.0225 12.48C91.0225 12.16 90.5125 11.59 90.0825 11.59C89.1425 11.58 87.5325 14.09 86.6525 15.96L86.5725 15.91L88.0325 11.73C87.7125 11.62 87.4125 11.58 87.1225 11.58C85.9025 11.59 85.0125 12.51 84.9725 14.1C84.9725 14.19 85.0525 14.25 85.1325 14.24C85.1925 14.23 85.2425 14.18 85.2425 14.12C85.2725 13.46 85.6825 12.49 86.3725 12.52C86.2625 13.21 85.7725 14.7 85.2425 16.32C84.9025 17.34 85.3125 17.8 85.5425 17.87L85.8825 17.91C85.9525 17.92 86.0125 17.88 86.0425 17.81C86.6025 16.36 88.0425 14.01 89.0125 13C89.1725 12.84 89.4025 12.61 89.5625 12.61C89.6325 12.66 89.6925 12.69 89.6325 12.96C89.2525 14.28 88.8625 15.2 88.4625 16.35C88.0425 17.55 88.2525 17.87 88.9725 17.88C90.4425 17.89 91.2325 16.79 91.1825 15.26C91.1725 15.18 91.1025 15.12 91.0325 15.14Z" fill="white"/>
<path d="M90.4425 19.19H79.7425C79.6725 19.19 79.6125 19.24 79.5925 19.31L79.5025 19.68C79.4825 19.78 79.5525 19.87 79.6525 19.87H90.3525C90.4225 19.87 90.4825 19.82 90.5025 19.75L90.5925 19.38C90.6125 19.28 90.5425 19.19 90.4425 19.19Z" fill="white"/>
<path d="M67.2825 13.77C67.3525 13.54 67.5125 13.01 67.5425 12.91C67.6525 12.53 67.7425 12.14 67.7025 11.9C67.6925 11.83 67.6225 11.77 67.5425 11.78C66.4625 11.81 65.7225 11.83 64.7525 11.83C63.6825 11.85 62.2625 11.83 61.4125 11.8C61.3425 11.8 61.2725 11.85 61.2625 11.92C61.2625 11.92 61.2525 11.96 61.2425 12C61.2225 12.1 61.2925 12.18 61.3925 12.18C61.8725 12.18 62.3425 12.2 62.9425 12.23C62.6125 12.51 62.2725 13.14 62.0425 13.97C61.6425 15.45 61.4425 16.28 61.0425 17.79C60.7425 18.9 60.4425 19.37 59.6125 19.48C58.7225 19.53 58.3625 18.97 57.8525 17.81C57.5425 17.1 57.3725 16.48 57.2225 15.89C58.2725 15.6 59.2925 14.89 59.3125 13.73C59.3425 12.37 58.2425 11.79 56.3925 11.79H52.8425C52.7725 11.79 52.7125 11.84 52.6925 11.91C52.6925 11.91 52.6825 11.97 52.6725 12C52.6425 12.12 52.7225 12.18 52.8225 12.18C53.3025 12.18 53.7825 12.2 54.3825 12.23C54.0425 12.52 53.7025 13.18 53.4625 14.05C53.1825 15.15 52.7425 16.72 52.4925 17.75C52.1625 18.95 51.8825 19.42 50.8325 19.49C50.7625 19.49 50.7125 19.54 50.6925 19.6L50.6725 19.69C50.6425 19.79 50.7225 19.88 50.8225 19.88C51.5125 19.86 52.0925 19.85 52.7425 19.85C53.4825 19.85 54.0425 19.87 54.7925 19.88C54.8625 19.88 54.9225 19.83 54.9425 19.77L54.9725 19.67C54.9925 19.58 54.9325 19.49 54.8425 19.48C53.9725 19.36 53.9325 18.92 54.2125 17.78C54.3125 17.39 54.5525 16.54 54.6025 16.3C54.8725 16.32 55.3025 16.33 55.6225 16.33C55.7025 16.74 55.8425 17.23 56.0325 17.77C56.2225 18.35 56.4425 18.82 56.7125 19.21C57.0725 19.65 57.5925 19.96 58.5825 19.96C58.8825 19.96 59.2425 19.88 59.5125 19.87C60.7425 19.84 61.7825 19.84 62.9325 19.84C63.9525 19.84 64.8225 19.86 65.9125 19.87C65.9425 19.87 65.9725 19.86 66.0025 19.85C66.2625 19.68 66.3925 19.4 66.5925 18.82L66.9325 17.72C66.9625 17.63 66.9025 17.54 66.8225 17.53L66.6925 17.5C66.6225 17.49 66.5625 17.52 66.5225 17.58C65.9325 18.67 65.2125 19.23 63.8425 19.23C62.7225 19.23 62.5025 18.96 62.8025 17.82C62.9425 17.23 63.2225 16.14 63.2925 15.93H63.5625C65.0925 15.93 65.5325 16.02 65.4925 16.81C65.4925 16.9 65.5525 16.97 65.6425 16.97H65.7025C65.7725 16.97 65.8325 16.92 65.8525 16.86L66.4225 14.7C66.4525 14.6 66.3725 14.51 66.2725 14.51H66.2225C66.1625 14.51 66.1125 14.54 66.0925 14.59C65.6825 15.31 65.3325 15.39 63.7025 15.39H63.4325C63.4825 15.17 63.7525 14.15 63.9425 13.45C64.0425 13.03 64.1925 12.48 64.2625 12.33C66.5125 12.33 66.9125 12.58 66.9025 13.7C66.9025 13.78 66.9725 13.85 67.0525 13.85H67.1225C67.2025 13.88 67.2625 13.84 67.2825 13.77ZM55.0525 15.87C54.9525 15.87 54.8325 15.85 54.7425 15.85C54.8625 15.34 55.1825 14.18 55.3325 13.61C55.4325 13.19 55.6225 12.51 55.7025 12.27C56.8425 12.25 57.6025 12.68 57.5925 13.71C57.5925 15.16 56.5425 15.87 55.0525 15.87Z" fill="white"/>
<path d="M117.073 13.92C117.383 12.76 117.663 12.29 118.643 12.2C118.703 12.19 118.763 12.15 118.783 12.09L118.803 12C118.833 11.9 118.753 11.81 118.653 11.81C118.013 11.83 117.393 11.84 116.713 11.84C116.073 11.84 115.313 11.82 114.643 11.81C114.573 11.81 114.513 11.86 114.493 11.92L114.473 12C114.443 12.1 114.523 12.19 114.623 12.19C115.103 12.19 115.573 12.21 116.163 12.24C115.823 12.53 115.502 13.19 115.272 14.05C114.882 15.49 114.683 16.27 114.293 17.77C114.003 18.85 113.703 19.35 112.873 19.47C111.953 19.55 111.593 18.97 111.083 17.8C110.773 17.09 110.602 16.47 110.452 15.88C111.502 15.59 112.523 14.88 112.543 13.72C112.573 12.36 111.473 11.78 109.623 11.78H106.073C106.003 11.78 105.943 11.83 105.923 11.9C105.923 11.9 105.913 11.96 105.903 11.99C105.873 12.11 105.953 12.17 106.053 12.17C106.533 12.17 107.013 12.19 107.613 12.22C107.273 12.51 106.933 13.17 106.693 14.04C106.413 15.14 105.973 16.71 105.723 17.74C105.393 18.94 105.113 19.41 104.063 19.48C103.993 19.48 103.943 19.53 103.923 19.59L103.903 19.68C103.873 19.78 103.953 19.87 104.053 19.87C104.743 19.85 105.323 19.84 105.973 19.84C106.713 19.84 107.272 19.86 108.022 19.87C108.092 19.87 108.153 19.82 108.173 19.76L108.202 19.66C108.222 19.57 108.163 19.48 108.073 19.47C107.203 19.35 107.163 18.91 107.443 17.77C107.543 17.38 107.783 16.53 107.833 16.29C108.103 16.31 108.533 16.32 108.853 16.32C108.933 16.73 109.073 17.22 109.263 17.76C109.453 18.34 109.673 18.81 109.943 19.2C110.303 19.64 110.823 19.95 111.812 19.95C112.113 19.95 112.472 19.86 112.743 19.85C113.392 19.82 114.032 19.83 114.632 19.83C115.322 19.83 115.972 19.85 116.702 19.86C116.772 19.86 116.833 19.81 116.853 19.75L116.873 19.66C116.893 19.57 116.833 19.48 116.733 19.47C115.843 19.39 115.733 18.96 116.033 17.76C116.393 16.53 116.903 14.51 117.073 13.92ZM108.272 15.87C108.172 15.87 108.053 15.85 107.963 15.85C108.083 15.34 108.403 14.18 108.553 13.61C108.653 13.19 108.843 12.51 108.923 12.27C110.063 12.25 110.823 12.68 110.812 13.71C110.823 15.16 109.762 15.87 108.272 15.87Z" fill="white"/>
<path d="M125.292 12.17C124.642 11.9 123.682 11.8 122.862 11.8H119.702C119.632 11.8 119.572 11.85 119.552 11.92L119.542 12C119.522 12.1 119.592 12.18 119.692 12.18C120.172 12.18 120.642 12.2 121.242 12.23C120.902 12.52 120.562 13.17 120.332 14.04C120.082 14.97 119.742 16.29 119.352 17.78C119.042 18.98 118.712 19.43 117.712 19.49C117.642 19.49 117.592 19.54 117.572 19.6L117.552 19.69C117.522 19.79 117.602 19.88 117.702 19.88H121.482C122.282 19.88 123.252 19.76 124.012 19.46C125.762 18.81 127.192 17.34 127.202 14.94C127.202 13.58 126.432 12.57 125.292 12.17ZM121.902 19.39C120.912 19.39 120.812 19.02 121.122 17.83C121.532 16.28 121.732 15.52 122.142 13.94C122.262 13.46 122.502 12.61 122.582 12.29C123.432 12.29 123.942 12.39 124.432 12.73C124.942 13.07 125.262 13.83 125.262 14.72C125.242 17.47 123.852 19.39 121.902 19.39Z" fill="white"/>
<path d="M144.023 11.8C143.603 11.81 143.183 11.83 142.733 11.83C142.183 11.83 141.813 11.82 141.293 11.8C141.223 11.8 141.163 11.85 141.143 11.91L141.113 12.01C141.093 12.1 141.153 12.19 141.243 12.2C141.893 12.28 142.003 12.64 141.503 13.34C140.873 14.21 140.063 15.26 139.563 15.87C139.373 15.21 139.023 13.95 138.853 13.17C138.773 12.75 138.873 12.27 139.683 12.19C139.743 12.18 139.793 12.14 139.813 12.08L139.833 11.99C139.863 11.89 139.783 11.8 139.683 11.8C139.053 11.82 138.513 11.83 137.913 11.83C137.343 11.83 136.753 11.83 136.153 11.8C136.083 11.8 136.013 11.84 136.003 11.91L135.983 12C135.963 12.1 136.033 12.19 136.123 12.19C136.473 12.2 136.843 12.21 137.283 12.24C136.943 12.53 137.023 13.22 137.273 14.06C137.423 14.54 137.693 15.49 137.833 16C137.973 16.51 137.983 16.73 137.863 17.14C137.813 17.36 137.713 17.72 137.673 17.85C137.343 19.05 137.063 19.42 136.003 19.51C135.933 19.52 135.883 19.56 135.863 19.62L135.843 19.71C135.813 19.81 135.893 19.9 135.993 19.9C136.673 19.88 137.523 19.87 138.173 19.87C138.883 19.87 139.453 19.89 140.173 19.9C140.243 19.9 140.303 19.85 140.323 19.79L140.353 19.69C140.373 19.6 140.313 19.51 140.213 19.5C139.253 19.42 139.123 19.03 139.423 17.86C139.473 17.66 139.573 17.28 139.663 16.96C139.743 16.62 139.863 16.38 140.053 16.13C140.683 15.31 141.433 14.38 142.163 13.53C143.033 12.52 143.443 12.25 144.013 12.2C144.073 12.19 144.123 12.15 144.143 12.09L144.163 12C144.203 11.89 144.123 11.8 144.023 11.8Z" fill="white"/>
</svg>
