<svg width="30" height="23" viewBox="0 0 30 23" fill="none" xmlns="http://www.w3.org/2000/svg">
<path d="M6.4052 21.7226C6.4052 21.2905 6.68695 20.9431 7.14715 20.9431C7.58856 20.9431 7.8797 21.2812 7.8797 21.7226C7.8797 22.164 7.58856 22.5021 7.14715 22.5021C6.68695 22.5021 6.4052 22.1546 6.4052 21.7226ZM8.37746 21.7226V20.5016H7.85153V20.8022C7.68248 20.5862 7.4289 20.4453 7.0814 20.4453C6.39581 20.4453 5.86048 20.9806 5.86048 21.7226C5.86048 22.4645 6.39581 22.9998 7.0814 22.9998C7.4289 22.9998 7.68248 22.859 7.85153 22.643V22.9341H8.37746V21.7226ZM26.2593 21.7226C26.2593 21.2905 26.5411 20.9431 27.0013 20.9431C27.4427 20.9431 27.7338 21.2812 27.7338 21.7226C27.7338 22.164 27.4427 22.5021 27.0013 22.5021C26.5411 22.5021 26.2593 22.1546 26.2593 21.7226ZM28.2316 21.7226V19.5249H27.7057V20.8022C27.5366 20.5862 27.283 20.4453 26.9355 20.4453C26.25 20.4453 25.7146 20.9806 25.7146 21.7226C25.7146 22.4645 26.25 22.9998 26.9355 22.9998C27.283 22.9998 27.5366 22.859 27.7057 22.643V22.9341H28.2316V21.7226ZM14.9423 20.9149C15.2804 20.9149 15.5058 21.1309 15.5621 21.5066H14.3037C14.36 21.1591 14.5666 20.9149 14.9423 20.9149ZM14.9611 20.4453C14.2473 20.4453 13.7495 20.9618 13.7495 21.7226C13.7495 22.4927 14.2661 22.9998 14.9986 22.9998C15.3649 22.9998 15.703 22.9059 15.9942 22.6617L15.7312 22.2673C15.5246 22.4269 15.271 22.5209 15.0268 22.5209C14.6887 22.5209 14.3788 22.3612 14.2943 21.9292H16.0975C16.1069 21.8634 16.1069 21.7977 16.1069 21.7226C16.1069 20.9618 15.6373 20.4453 14.9611 20.4453ZM21.3475 21.7226C21.3475 21.2905 21.6292 20.9431 22.0894 20.9431C22.5308 20.9431 22.822 21.2812 22.822 21.7226C22.822 22.164 22.5308 22.5021 22.0894 22.5021C21.6292 22.5021 21.3475 22.1452 21.3475 21.7226ZM23.3197 21.7226V20.5016H22.7938V20.8022C22.6247 20.5862 22.3712 20.4453 22.0237 20.4453C21.3381 20.4453 20.8027 20.9806 20.8027 21.7226C20.8027 22.4645 21.3381 22.9998 22.0237 22.9998C22.3712 22.9998 22.6247 22.859 22.7938 22.643V22.9341H23.3197V21.7226ZM18.3609 21.7226C18.3609 22.4645 18.8774 22.9998 19.6569 22.9998C20.0232 22.9998 20.2674 22.9153 20.5304 22.7087L20.2768 22.2767C20.0796 22.4176 19.873 22.4927 19.6382 22.4927C19.2155 22.4833 18.9056 22.1828 18.9056 21.7132C18.9056 21.2436 19.2155 20.9431 19.6382 20.9337C19.8636 20.9337 20.0796 21.0088 20.2768 21.1497L20.5304 20.7177C20.2674 20.511 20.0232 20.4265 19.6569 20.4265C18.868 20.4453 18.3609 20.9806 18.3609 21.7226ZM25.1793 20.4453C24.8694 20.4453 24.6721 20.5862 24.5407 20.8022V20.511H24.0147V22.9435H24.5407V21.5817C24.5407 21.1778 24.7097 20.9524 25.0572 20.9524C25.1699 20.9524 25.2826 20.9712 25.3859 21.0182L25.5456 20.5204C25.4423 20.4641 25.2826 20.4453 25.1793 20.4453ZM10.9978 20.6989C10.7442 20.5298 10.3967 20.4453 10.0022 20.4453C9.38238 20.4453 8.98793 20.7364 8.98793 21.2248C8.98793 21.6193 9.27907 21.8634 9.82379 21.9386L10.0774 21.9761C10.3685 22.0137 10.5 22.0888 10.5 22.2297C10.5 22.4176 10.3028 22.5209 9.94589 22.5209C9.57961 22.5209 9.31664 22.4082 9.1382 22.2673L8.89401 22.6805C9.18515 22.8965 9.55143 22.9998 9.94589 22.9998C10.6503 22.9998 11.0541 22.6711 11.0541 22.2015C11.0541 21.7695 10.7348 21.5535 10.1995 21.469L9.94589 21.4314C9.72048 21.4032 9.53265 21.3563 9.53265 21.1966C9.53265 21.0182 9.7017 20.9149 9.99284 20.9149C10.3028 20.9149 10.6033 21.0276 10.7536 21.1215L10.9978 20.6989ZM17.8256 20.4453C17.5156 20.4453 17.3184 20.5862 17.1869 20.8022V20.5016H16.661V22.9341H17.1869V21.5723C17.1869 21.1685 17.356 20.9431 17.7035 20.9431C17.8162 20.9431 17.9289 20.9618 18.0322 21.0088L18.1918 20.511C18.0791 20.4641 17.9289 20.4453 17.8256 20.4453ZM13.3081 20.5016H12.4441V19.7597H11.9088V20.5016H11.411V20.9806H11.9088V22.0888C11.9088 22.6524 12.1248 22.9905 12.754 22.9905C12.9794 22.9905 13.2518 22.9153 13.4114 22.8026L13.2612 22.3518C13.1015 22.4457 12.9325 22.4927 12.7916 22.4927C12.5286 22.4927 12.4441 22.333 12.4441 22.0888V20.99H13.3081V20.5016ZM5.39089 22.9435V21.4126C5.39089 20.8397 5.02461 20.4547 4.43293 20.4453C4.123 20.4359 3.80369 20.5392 3.57828 20.8773C3.40923 20.605 3.14626 20.4453 2.77059 20.4453C2.50763 20.4453 2.25405 20.5204 2.05682 20.8022V20.5016H1.53088V22.9341H2.06621V21.5817C2.06621 21.1591 2.30101 20.9337 2.65789 20.9337C3.00539 20.9337 3.18383 21.1591 3.18383 21.5723V22.9247H3.71916V21.5723C3.71916 21.1497 3.96335 20.9243 4.31084 20.9243C4.66773 20.9243 4.84617 21.1497 4.84617 21.5629V22.9153L5.39089 22.9435Z" fill="white"/>
<path d="M18.8399 16.3693H10.8193V1.9624H18.8399V16.3693Z" fill="#D9692C"/>
<path d="M11.3264 9.16634C11.3264 6.24551 12.6976 3.6346 14.8296 1.96287C13.2142 0.685597 11.2231 0 9.16634 0C4.10419 0 0 4.10419 0 9.16634C0 14.2285 4.10419 18.3327 9.16634 18.3327C11.2231 18.3327 13.2142 17.6471 14.8296 16.3698C12.6976 14.6981 11.3264 12.0872 11.3264 9.16634Z" fill="#C42E2B"/>
<path d="M29.659 9.16634C29.659 14.2285 25.5548 18.3327 20.4927 18.3327C18.4359 18.3327 16.4448 17.6471 14.8295 16.3698C16.9614 14.6887 18.3326 12.0872 18.3326 9.16634C18.3326 6.24551 16.9614 3.6346 14.8295 1.96287C16.4448 0.685597 18.4359 0 20.4927 0C25.5548 0 29.659 4.10419 29.659 9.16634Z" fill="#D78D40"/>
</svg>
