<svg width="44" height="14" viewBox="0 0 44 14" fill="none" xmlns="http://www.w3.org/2000/svg">
<path d="M18.7042 13.7643H15.1786L17.3821 0.235725H20.9078L18.7042 13.7643ZM12.2269 0.245974L8.8653 9.54173L8.46559 7.54319L7.28697 1.45534C7.28697 1.45534 7.14348 0.235725 5.6164 0.235725H0.0614934L0 0.471449C0 0.471449 1.70132 0.819912 3.67936 2.01903L6.73353 13.7643H10.4026L16.0088 0.235725L12.2269 0.245974ZM39.9195 13.7643H43.1479L40.3294 0.235725H37.5007C36.1889 0.235725 35.8712 1.24012 35.8712 1.24012L30.6237 13.754H34.2928L35.0307 11.7452H39.5095L39.9195 13.7643ZM36.0454 8.97804L37.9004 3.91508L38.9458 8.97804H36.0454ZM30.9004 3.49488L31.4026 0.594436C31.4026 0.594436 29.8551 0 28.2357 0C26.4934 0 22.3426 0.768668 22.3426 4.47877C22.3426 7.97365 27.2108 8.01464 27.2108 9.84919C27.2108 11.6837 22.8448 11.3558 21.3997 10.1977L20.877 13.2313C20.877 13.2313 22.4451 14 24.8536 14C27.2518 14 30.8799 12.7599 30.8799 9.3675C30.8799 5.85212 25.9707 5.52416 25.9707 3.99707C25.9707 2.46999 29.3939 2.66471 30.9004 3.49488Z" fill="#D7D7D7"/>
<path d="M8.46559 7.54331L7.28697 1.45546C7.28697 1.45546 7.14348 0.23584 5.6164 0.23584H0.0614934L0 0.471565C0 0.471565 2.66471 1.02501 5.22694 3.09528C7.67643 5.07332 8.46559 7.54331 8.46559 7.54331Z" fill="#C99353"/>
</svg>
