<svg width="13" height="12" viewBox="0 0 13 12" fill="none" xmlns="http://www.w3.org/2000/svg">
<path d="M7.16504 11.2622C7.50879 11.2622 7.7666 11.1226 8.09961 10.8271L12.3804 6.84717C12.5952 6.6377 12.7026 6.3584 12.7026 6.12207C12.7026 5.88037 12.6006 5.61182 12.3804 5.40234L8.09961 1.43848C7.73438 1.12158 7.49805 0.987305 7.17041 0.987305C6.64941 0.987305 6.2627 1.39014 6.2627 1.90576V3.61914H6.17139C2.75 3.61914 0.961426 5.82666 0.961426 9.59717C0.961426 10.6606 1.28906 11.1924 1.82617 11.1924C2.20752 11.1924 2.5083 11.042 2.75537 10.564C3.42676 9.33398 4.41504 8.6626 6.17139 8.6626H6.2627V10.3599C6.2627 10.8701 6.64941 11.2622 7.16504 11.2622ZM7.5625 9.46289C7.50879 9.46289 7.47119 9.42529 7.47119 9.36621V7.50244C7.47119 7.42188 7.41748 7.37354 7.34229 7.37354H6.67627C4.3667 7.37354 2.90039 7.95898 2.23975 9.29102C2.229 9.32324 2.21289 9.33936 2.19141 9.33936C2.16992 9.33936 2.15381 9.32324 2.15381 9.29102C2.20752 6.67529 3.60938 4.88135 6.67627 4.88135H7.34229C7.41748 4.88135 7.47119 4.82764 7.47119 4.75244V2.86182C7.47119 2.80811 7.50879 2.77051 7.5625 2.77051C7.59473 2.77051 7.62158 2.78125 7.64844 2.80811L11.0376 6.02539C11.0806 6.06836 11.0967 6.08984 11.0967 6.12207C11.0967 6.1543 11.0806 6.18115 11.0376 6.22412L7.64844 9.41992C7.61621 9.45215 7.58936 9.46289 7.5625 9.46289Z" fill="#8C959E"/>
</svg>
