<svg width="15" height="15" viewBox="0 0 15 15" fill="none" xmlns="http://www.w3.org/2000/svg">
<path d="M14.1679 0H0.824588C0.367316 0 0 0.367316 0 0.824588V14.1679C0 14.6252 0.367316 14.9925 0.824588 14.9925H8.006V9.18291H6.05697V6.92654H8.01349V5.25487C8.01349 3.32084 9.1979 2.26387 10.922 2.26387C11.7466 2.26387 12.4588 2.32384 12.6687 2.35382V4.37781H11.4693C10.5322 4.37781 10.3523 4.82759 10.3523 5.47976V6.92654H12.5937L12.3013 9.1904H10.3523V15H14.1754C14.6327 15 15 14.6327 15 14.1754V0.824588C14.9925 0.367316 14.6252 0 14.1679 0Z" fill="#D7D7D7"/>
</svg>
