<svg width="13" height="11" viewBox="0 0 13 11" fill="none" xmlns="http://www.w3.org/2000/svg">
<path d="M6.42578 10.4287C6.67822 10.4287 6.95752 10.3159 7.24756 10.1172C10.1533 8.23193 12.0386 5.93311 12.0386 3.6665C12.0386 1.5127 10.6045 0.0732422 8.7998 0.0732422C7.75781 0.0732422 6.95752 0.529785 6.42578 1.35156C5.89404 0.529785 5.09375 0.0732422 4.05176 0.0732422C2.24707 0.0732422 0.812988 1.5127 0.812988 3.6665C0.812988 5.93311 2.69287 8.23193 5.59863 10.1172C5.89404 10.3159 6.17334 10.4287 6.42578 10.4287ZM6.42578 8.84961C6.39893 8.84961 6.37207 8.8335 6.3291 8.80664C3.90674 7.15771 2.33301 5.29395 2.33301 3.65576C2.33301 2.4043 3.12256 1.58252 4.18604 1.58252C5.04541 1.58252 5.59326 2.11963 5.93701 2.72656C6.06592 2.94678 6.2002 3.07568 6.43115 3.07568C6.65674 3.07568 6.80176 2.94678 6.93066 2.72656C7.26904 2.11963 7.80615 1.58252 8.66553 1.58252C9.729 1.58252 10.5186 2.4043 10.5186 3.65576C10.5186 5.29395 8.93945 7.15771 6.52246 8.80664C6.47949 8.8335 6.45264 8.84961 6.42578 8.84961Z" fill="#8C959E"/>
</svg>
