<svg width="15" height="15" viewBox="0 0 15 15" fill="none" xmlns="http://www.w3.org/2000/svg">
<path d="M10.53 0H4.47C2.0025 0 0 2.0025 0 4.47V10.53C0 12.9975 2.0025 15 4.47 15H10.53C12.9975 15 15 12.9975 15 10.53V4.47C14.9925 2.0025 12.99 0 10.53 0ZM13.485 10.53C13.485 12.165 12.1575 13.4925 10.5225 13.4925H4.4625C2.8275 13.4925 1.5 12.165 1.5 10.53V4.47C1.5 2.835 2.8275 1.5075 4.4625 1.5075H10.53C12.165 1.5075 13.4925 2.835 13.4925 4.47L13.485 10.53Z" fill="#D7D7D7"/>
<path d="M7.49249 3.62256C5.35499 3.62256 3.61499 5.36256 3.61499 7.50006C3.61499 9.63756 5.35499 11.3776 7.49249 11.3776C9.62999 11.3776 11.37 9.63756 11.37 7.50006C11.37 5.36256 9.63749 3.62256 7.49249 3.62256ZM7.49249 9.87006C6.17999 9.87006 5.12249 8.80506 5.12249 7.50006C5.12249 6.19506 6.18749 5.13006 7.49249 5.13006C8.80499 5.13006 9.86249 6.19506 9.86249 7.50006C9.86999 8.81256 8.80499 9.87006 7.49249 9.87006Z" fill="#D7D7D7"/>
<path d="M11.385 4.58266C11.8986 4.58266 12.315 4.16628 12.315 3.65266C12.315 3.13903 11.8986 2.72266 11.385 2.72266C10.8714 2.72266 10.455 3.13903 10.455 3.65266C10.455 4.16628 10.8714 4.58266 11.385 4.58266Z" fill="#D7D7D7"/>
</svg>
