<svg width="10" height="9" viewBox="0 0 10 9" fill="none" xmlns="http://www.w3.org/2000/svg">
<path d="M2.5 8.51758C2.74902 8.70801 3.05176 8.64941 3.37402 8.41016L5.25879 7.02832L7.13867 8.41016C7.46582 8.64941 7.76855 8.70801 8.01758 8.51758C8.26172 8.33203 8.31055 8.02441 8.18359 7.65332L7.43652 5.44629L9.33594 4.08398C9.6582 3.85449 9.80469 3.58105 9.70703 3.28809C9.60449 2.99512 9.33105 2.85352 8.93555 2.8584L6.61133 2.87793L5.90332 0.651367C5.78125 0.270508 5.56641 0.0556641 5.25879 0.0556641C4.95117 0.0556641 4.74121 0.270508 4.61914 0.651367L3.91113 2.87793L1.58203 2.8584C1.18652 2.85352 0.913086 2.99512 0.81543 3.2832C0.708008 3.58105 0.859375 3.85449 1.18164 4.08398L3.08105 5.44629L2.33398 7.65332C2.20703 8.02441 2.25586 8.33203 2.5 8.51758Z" fill="#0A0D0F"/>
</svg>
