<svg width="18" height="15" viewBox="0 0 18 15" fill="none" xmlns="http://www.w3.org/2000/svg">
<path d="M0.30532 7.19667L4.27626 8.67507L5.81179 13.6173C5.91178 13.9316 6.29744 14.053 6.55456 13.8387L8.76857 12.0318C8.99711 11.8461 9.33279 11.8318 9.57562 12.0104L13.568 14.91C13.8394 15.11 14.2322 14.96 14.3036 14.6243L17.2247 0.561771C17.3032 0.19753 16.9461 -0.102433 16.5962 0.0332644L0.30532 6.31821C-0.101773 6.47533 -0.101773 7.04669 0.30532 7.19667ZM5.56182 7.88945L13.318 3.11146C13.4609 3.02576 13.6037 3.21145 13.4823 3.32572L7.08306 9.27499C6.85452 9.48211 6.71168 9.76779 6.66883 10.0678L6.44742 11.6818C6.41886 11.8961 6.1189 11.9175 6.05462 11.7104L5.21901 8.76077C5.12616 8.43224 5.26186 8.07514 5.56182 7.88945Z" fill="#D7D7D7"/>
</svg>
