<svg width="22" height="15" viewBox="0 0 22 15" fill="none" xmlns="http://www.w3.org/2000/svg">
<path d="M20.49 1.29C19.7175 0.375 18.3 0 15.585 0H5.73751C2.96251 0 1.515 0.3975 0.75 1.3725C0 2.325 0 3.72 0 5.655V9.345C0 13.095 0.885 15 5.73 15H15.5775C17.9325 15 19.23 14.67 20.0775 13.86C20.94 13.035 21.315 11.6775 21.315 9.345V5.655C21.315 3.615 21.2625 2.205 20.49 1.29ZM13.6875 8.01L9.21751 10.35C9.12001 10.4025 9.00751 10.425 8.90251 10.425C8.78251 10.425 8.65501 10.395 8.55001 10.3275C8.34751 10.2 8.22001 9.9825 8.22001 9.7425V5.0775C8.22001 4.8375 8.34751 4.6125 8.55001 4.4925C8.75251 4.365 9.0075 4.3575 9.225 4.47L13.695 6.795C13.92 6.915 14.0625 7.1475 14.0625 7.4025C14.055 7.6575 13.9125 7.89 13.6875 8.01Z" fill="#D7D7D7"/>
</svg>
